<?xml version="1.0" encoding="UTF-8" standalone="no"?>
<!-- Created with Inkscape (http://www.inkscape.org/) -->

<svg
   xmlns:dc="http://purl.org/dc/elements/1.1/"
   xmlns:cc="http://creativecommons.org/ns#"
   xmlns:rdf="http://www.w3.org/1999/02/22-rdf-syntax-ns#"
   xmlns:svg="http://www.w3.org/2000/svg"
   xmlns="http://www.w3.org/2000/svg"
   version="1.1"
   width="224"
   height="224"
   id="svg2">
  <defs
     id="defs4" />
  <metadata
     id="metadata7">
    <rdf:RDF>
      <cc:Work
         rdf:about="">
        <dc:format>image/svg+xml</dc:format>
        <dc:type
           rdf:resource="http://purl.org/dc/dcmitype/StillImage" />
        <dc:title></dc:title>
      </cc:Work>
    </rdf:RDF>
  </metadata>
  <g
     transform="translate(-0.50000049,-827.86218)"
     id="layer1">
    <path
       d="m 243,956.86218 a 106.5,106.5 0 1 1 -213,0 106.5,106.5 0 1 1 213,0 z"
       transform="matrix(0.95412844,0,0,0.95412844,-17.738532,26.89276)"
       id="path3877"
       style="fill:#f7931d;fill-opacity:1;stroke:#202020;stroke-width:5;stroke-linecap:round;stroke-linejoin:round;stroke-miterlimit:4;stroke-opacity:1;stroke-dasharray:none" />
    <g
       transform="translate(0.5,-0.50000151)"
       id="g3940">
      <path
         d="m 165,1025.8622 -53,-188.00002 88.5,53.5 -142.5,134.50002 0,-172.00002 155.5,86.5 -190.5,48.5 89,-151.5"
         id="path3936"
         style="fill:none;stroke:#202020;stroke-width:3;stroke-linecap:butt;stroke-linejoin:miter;stroke-miterlimit:4;stroke-opacity:1;stroke-dasharray:none" />
      <path
         d="m 200.5,988.86218 -177.5,-97.5 89,150.00002 53,-187.50002 -154.5,86"
         id="path3938"
         style="fill:none;stroke:#000000;stroke-width:3;stroke-linecap:butt;stroke-linejoin:miter;stroke-miterlimit:4;stroke-opacity:1;stroke-dasharray:none" />
    </g>
    <g
       transform="translate(0.5,-0.50000151)"
       id="g3903">
      <path
         d="m 119,806.36218 a 8,8 0 1 1 -16,0 8,8 0 1 1 16,0 z"
         transform="matrix(0.95238096,0,0,0.95238095,6.2857135,70.898201)"
         id="path3879"
         style="fill:#ffffff;fill-opacity:1;stroke:#202020;stroke-width:5;stroke-linecap:round;stroke-linejoin:round;stroke-miterlimit:4;stroke-opacity:1;stroke-dasharray:none" />
      <path
         d="m 119,806.36218 a 8,8 0 1 1 -16,0 8,8 0 1 1 16,0 z"
         transform="matrix(0.95238096,0,0,0.95238095,6.2857135,273.8982)"
         id="path3881"
         style="fill:#ffffff;fill-opacity:1;stroke:#202020;stroke-width:5;stroke-linecap:round;stroke-linejoin:round;stroke-miterlimit:4;stroke-opacity:1;stroke-dasharray:none" />
      <path
         d="m 119,806.36218 a 8,8 0 1 1 -16,0 8,8 0 1 1 16,0 z"
         transform="matrix(0.95238096,0,0,0.95238095,-95.214286,172.3982)"
         id="path3883"
         style="fill:#ffffff;fill-opacity:1;stroke:#202020;stroke-width:5;stroke-linecap:round;stroke-linejoin:round;stroke-miterlimit:4;stroke-opacity:1;stroke-dasharray:none" />
      <path
         d="m 119,806.36218 a 8,8 0 1 1 -16,0 8,8 0 1 1 16,0 z"
         transform="matrix(0.95238096,0,0,0.95238095,107.78571,172.3982)"
         id="path3885"
         style="fill:#ffffff;fill-opacity:1;stroke:#202020;stroke-width:5;stroke-linecap:round;stroke-linejoin:round;stroke-miterlimit:4;stroke-opacity:1;stroke-dasharray:none" />
      <path
         d="m 119,806.36218 a 8,8 0 1 1 -16,0 8,8 0 1 1 16,0 z"
         transform="matrix(0.95238096,0,0,0.95238095,-47.714286,86.398201)"
         id="path3887"
         style="fill:#ffffff;fill-opacity:1;stroke:#202020;stroke-width:5;stroke-linecap:round;stroke-linejoin:round;stroke-miterlimit:4;stroke-opacity:1;stroke-dasharray:none" />
      <path
         d="m 119,806.36218 a 8,8 0 1 1 -16,0 8,8 0 1 1 16,0 z"
         transform="matrix(0.95238096,0,0,0.95238095,-82.714286,123.8982)"
         id="path3889"
         style="fill:#ffffff;fill-opacity:1;stroke:#202020;stroke-width:5;stroke-linecap:round;stroke-linejoin:round;stroke-miterlimit:4;stroke-opacity:1;stroke-dasharray:none" />
      <path
         d="m 119,806.36218 a 8,8 0 1 1 -16,0 8,8 0 1 1 16,0 z"
         transform="matrix(0.95238096,0,0,0.95238095,59.285714,86.398201)"
         id="path3891"
         style="fill:#ffffff;fill-opacity:1;stroke:#202020;stroke-width:5;stroke-linecap:round;stroke-linejoin:round;stroke-miterlimit:4;stroke-opacity:1;stroke-dasharray:none" />
      <path
         d="m 119,806.36218 a 8,8 0 1 1 -16,0 8,8 0 1 1 16,0 z"
         transform="matrix(0.95238096,0,0,0.95238095,94.785714,123.3982)"
         id="path3893"
         style="fill:#ffffff;fill-opacity:1;stroke:#202020;stroke-width:5;stroke-linecap:round;stroke-linejoin:round;stroke-miterlimit:4;stroke-opacity:1;stroke-dasharray:none" />
      <path
         d="m 119,806.36218 a 8,8 0 1 1 -16,0 8,8 0 1 1 16,0 z"
         transform="matrix(0.95238096,0,0,0.95238095,-82.714286,221.3982)"
         id="path3895"
         style="fill:#ffffff;fill-opacity:1;stroke:#202020;stroke-width:5;stroke-linecap:round;stroke-linejoin:round;stroke-miterlimit:4;stroke-opacity:1;stroke-dasharray:none" />
      <path
         d="m 119,806.36218 a 8,8 0 1 1 -16,0 8,8 0 1 1 16,0 z"
         transform="matrix(0.95238096,0,0,0.95238095,-47.714286,258.3982)"
         id="path3897"
         style="fill:#ffffff;fill-opacity:1;stroke:#202020;stroke-width:5;stroke-linecap:round;stroke-linejoin:round;stroke-miterlimit:4;stroke-opacity:1;stroke-dasharray:none" />
      <path
         d="m 119,806.36218 a 8,8 0 1 1 -16,0 8,8 0 1 1 16,0 z"
         transform="matrix(0.95238096,0,0,0.95238095,59.285714,258.3982)"
         id="path3899"
         style="fill:#ffffff;fill-opacity:1;stroke:#202020;stroke-width:5;stroke-linecap:round;stroke-linejoin:round;stroke-miterlimit:4;stroke-opacity:1;stroke-dasharray:none" />
      <path
         d="m 119,806.36218 a 8,8 0 1 1 -16,0 8,8 0 1 1 16,0 z"
         transform="matrix(0.95238096,0,0,0.95238095,94.785714,221.3982)"
         id="path3901"
         style="fill:#ffffff;fill-opacity:1;stroke:#202020;stroke-width:5;stroke-linecap:round;stroke-linejoin:round;stroke-miterlimit:4;stroke-opacity:1;stroke-dasharray:none" />
    </g>
    <path
       d="m 30.5,905.36218 0,69 71,0 0,-29.5 32,0 0,-12 -32,0 0,-16 40.5,0 0,57.5 13,0 0,-45.5 29,45.5 14.5,0 0,-69 -13,0 0,46.5 -29.5,-46.5 -68.5,0 0,57 -43,0 0,-17.5 34,0 0,-12 -34.5,0 0,-16 38.5,0 0,-11.5 z"
       id="path3944"
       style="fill:#202020;fill-opacity:1;stroke:#ffffff;stroke-width:3;stroke-linecap:butt;stroke-linejoin:miter;stroke-miterlimit:4;stroke-opacity:1;stroke-dasharray:none" />
  </g>
</svg>
