<?xml version="1.0" encoding="UTF-8" standalone="no"?>
<!-- Created with Inkscape (http://www.inkscape.org/) -->

<svg
   xmlns:dc="http://purl.org/dc/elements/1.1/"
   xmlns:cc="http://creativecommons.org/ns#"
   xmlns:rdf="http://www.w3.org/1999/02/22-rdf-syntax-ns#"
   xmlns:svg="http://www.w3.org/2000/svg"
   xmlns="http://www.w3.org/2000/svg"
   version="1.1"
   width="1280"
   height="224"
   id="svg2">
  <defs
     id="defs4" />
  <metadata
     id="metadata7">
    <rdf:RDF>
      <cc:Work
         rdf:about="">
        <dc:format>image/svg+xml</dc:format>
        <dc:type
           rdf:resource="http://purl.org/dc/dcmitype/StillImage" />
        <dc:title></dc:title>
      </cc:Work>
    </rdf:RDF>
  </metadata>
  <g
     transform="translate(-0.50000049,-827.86218)"
     id="layer1">
    <path
       d="m 243,956.86218 a 106.5,106.5 0 1 1 -213,0 106.5,106.5 0 1 1 213,0 z"
       transform="matrix(0.95412844,0,0,0.95412844,-17.738532,26.89276)"
       id="path3877"
       style="fill:#f7931d;fill-opacity:1;stroke:#202020;stroke-width:5;stroke-linecap:round;stroke-linejoin:round;stroke-miterlimit:4;stroke-opacity:1;stroke-dasharray:none" />
    <g
       transform="translate(0.5,-0.50000151)"
       id="g3940">
      <path
         d="m 165,1025.8622 -53,-188.00002 88.5,53.5 -142.5,134.50002 0,-172.00002 155.5,86.5 -190.5,48.5 89,-151.5"
         id="path3936"
         style="fill:none;stroke:#202020;stroke-width:3;stroke-linecap:butt;stroke-linejoin:miter;stroke-miterlimit:4;stroke-opacity:1;stroke-dasharray:none" />
      <path
         d="m 200.5,988.86218 -177.5,-97.5 89,150.00002 53,-187.50002 -154.5,86"
         id="path3938"
         style="fill:none;stroke:#000000;stroke-width:3;stroke-linecap:butt;stroke-linejoin:miter;stroke-miterlimit:4;stroke-opacity:1;stroke-dasharray:none" />
    </g>
    <g
       transform="translate(0.5,-0.50000151)"
       id="g3903">
      <path
         d="m 119,806.36218 a 8,8 0 1 1 -16,0 8,8 0 1 1 16,0 z"
         transform="matrix(0.95238096,0,0,0.95238095,6.2857135,70.898201)"
         id="path3879"
         style="fill:#ffffff;fill-opacity:1;stroke:#202020;stroke-width:5;stroke-linecap:round;stroke-linejoin:round;stroke-miterlimit:4;stroke-opacity:1;stroke-dasharray:none" />
      <path
         d="m 119,806.36218 a 8,8 0 1 1 -16,0 8,8 0 1 1 16,0 z"
         transform="matrix(0.95238096,0,0,0.95238095,6.2857135,273.8982)"
         id="path3881"
         style="fill:#ffffff;fill-opacity:1;stroke:#202020;stroke-width:5;stroke-linecap:round;stroke-linejoin:round;stroke-miterlimit:4;stroke-opacity:1;stroke-dasharray:none" />
      <path
         d="m 119,806.36218 a 8,8 0 1 1 -16,0 8,8 0 1 1 16,0 z"
         transform="matrix(0.95238096,0,0,0.95238095,-95.214286,172.3982)"
         id="path3883"
         style="fill:#ffffff;fill-opacity:1;stroke:#202020;stroke-width:5;stroke-linecap:round;stroke-linejoin:round;stroke-miterlimit:4;stroke-opacity:1;stroke-dasharray:none" />
      <path
         d="m 119,806.36218 a 8,8 0 1 1 -16,0 8,8 0 1 1 16,0 z"
         transform="matrix(0.95238096,0,0,0.95238095,107.78571,172.3982)"
         id="path3885"
         style="fill:#ffffff;fill-opacity:1;stroke:#202020;stroke-width:5;stroke-linecap:round;stroke-linejoin:round;stroke-miterlimit:4;stroke-opacity:1;stroke-dasharray:none" />
      <path
         d="m 119,806.36218 a 8,8 0 1 1 -16,0 8,8 0 1 1 16,0 z"
         transform="matrix(0.95238096,0,0,0.95238095,-47.714286,86.398201)"
         id="path3887"
         style="fill:#ffffff;fill-opacity:1;stroke:#202020;stroke-width:5;stroke-linecap:round;stroke-linejoin:round;stroke-miterlimit:4;stroke-opacity:1;stroke-dasharray:none" />
      <path
         d="m 119,806.36218 a 8,8 0 1 1 -16,0 8,8 0 1 1 16,0 z"
         transform="matrix(0.95238096,0,0,0.95238095,-82.714286,123.8982)"
         id="path3889"
         style="fill:#ffffff;fill-opacity:1;stroke:#202020;stroke-width:5;stroke-linecap:round;stroke-linejoin:round;stroke-miterlimit:4;stroke-opacity:1;stroke-dasharray:none" />
      <path
         d="m 119,806.36218 a 8,8 0 1 1 -16,0 8,8 0 1 1 16,0 z"
         transform="matrix(0.95238096,0,0,0.95238095,59.285714,86.398201)"
         id="path3891"
         style="fill:#ffffff;fill-opacity:1;stroke:#202020;stroke-width:5;stroke-linecap:round;stroke-linejoin:round;stroke-miterlimit:4;stroke-opacity:1;stroke-dasharray:none" />
      <path
         d="m 119,806.36218 a 8,8 0 1 1 -16,0 8,8 0 1 1 16,0 z"
         transform="matrix(0.95238096,0,0,0.95238095,94.785714,123.3982)"
         id="path3893"
         style="fill:#ffffff;fill-opacity:1;stroke:#202020;stroke-width:5;stroke-linecap:round;stroke-linejoin:round;stroke-miterlimit:4;stroke-opacity:1;stroke-dasharray:none" />
      <path
         d="m 119,806.36218 a 8,8 0 1 1 -16,0 8,8 0 1 1 16,0 z"
         transform="matrix(0.95238096,0,0,0.95238095,-82.714286,221.3982)"
         id="path3895"
         style="fill:#ffffff;fill-opacity:1;stroke:#202020;stroke-width:5;stroke-linecap:round;stroke-linejoin:round;stroke-miterlimit:4;stroke-opacity:1;stroke-dasharray:none" />
      <path
         d="m 119,806.36218 a 8,8 0 1 1 -16,0 8,8 0 1 1 16,0 z"
         transform="matrix(0.95238096,0,0,0.95238095,-47.714286,258.3982)"
         id="path3897"
         style="fill:#ffffff;fill-opacity:1;stroke:#202020;stroke-width:5;stroke-linecap:round;stroke-linejoin:round;stroke-miterlimit:4;stroke-opacity:1;stroke-dasharray:none" />
      <path
         d="m 119,806.36218 a 8,8 0 1 1 -16,0 8,8 0 1 1 16,0 z"
         transform="matrix(0.95238096,0,0,0.95238095,59.285714,258.3982)"
         id="path3899"
         style="fill:#ffffff;fill-opacity:1;stroke:#202020;stroke-width:5;stroke-linecap:round;stroke-linejoin:round;stroke-miterlimit:4;stroke-opacity:1;stroke-dasharray:none" />
      <path
         d="m 119,806.36218 a 8,8 0 1 1 -16,0 8,8 0 1 1 16,0 z"
         transform="matrix(0.95238096,0,0,0.95238095,94.785714,221.3982)"
         id="path3901"
         style="fill:#ffffff;fill-opacity:1;stroke:#202020;stroke-width:5;stroke-linecap:round;stroke-linejoin:round;stroke-miterlimit:4;stroke-opacity:1;stroke-dasharray:none" />
    </g>
    <path
       d="m 30.5,905.36218 0,69 71,0 0,-29.5 32,0 0,-12 -32,0 0,-16 40.5,0 0,57.5 13,0 0,-45.5 29,45.5 14.5,0 0,-69 -13,0 0,46.5 -29.5,-46.5 -68.5,0 0,57 -43,0 0,-17.5 34,0 0,-12 -34.5,0 0,-16 38.5,0 0,-11.5 z"
       id="path3944"
       style="fill:#202020;fill-opacity:1;stroke:#ffffff;stroke-width:3;stroke-linecap:butt;stroke-linejoin:miter;stroke-miterlimit:4;stroke-opacity:1;stroke-dasharray:none" />
    <g
       id="text3965"
       style="font-size:64px;font-style:normal;font-variant:normal;font-weight:normal;font-stretch:normal;line-height:125%;letter-spacing:0px;word-spacing:0px;fill:#202020;fill-opacity:1;stroke:none;font-family:Play;-inkscape-font-specification:Play">
      <path
         d="m 283.748,968.5022 -39.248,0 0,-57.112 38.368,0 0,5.984 -29.832,0 0,18.656 26.928,0 0,5.984 -26.928,0 0,20.504 30.712,0 0,5.984"
         id="path4052"
         style="font-size:88px;line-height:100%;fill:#202020" />
      <path
         d="m 302.93888,968.5022 -7.92,0 0,-61.6 7.92,0 0,61.6"
         id="path4054"
         style="font-size:88px;line-height:100%;fill:#202020" />
      <path
         d="m 351.69913,948.9662 -28.6,0 0,6.424 c -2e-5,2.99201 1.05598,5.13334 3.168,6.424 2.11198,1.232 5.25064,1.848 9.416,1.848 4.04797,0 8.8293,-0.704 14.344,-2.112 l 0,6.072 c -5.28004,1.17333 -10.41337,1.76 -15.4,1.76 -13.02402,0 -19.53601,-4.34133 -19.536,-13.024 l 0,-16.808 c -1e-5,-5.2213 1.49599,-8.94663 4.488,-11.176 2.99198,-2.22929 7.77331,-3.34396 14.344,-3.344 6.15997,4e-5 10.64796,1.08537 13.464,3.256 2.87462,2.11204 4.31195,5.8667 4.312,11.264 l 0,9.416 m -7.92,-5.192 0,-6.688 c -4e-5,-2.5813 -0.79204,-4.3413 -2.376,-5.28 -1.58403,-0.9973 -4.22403,-1.49596 -7.92,-1.496 -3.52002,4e-5 -6.13069,0.46937 -7.832,1.408 -1.70135,0.9387 -2.55202,2.72803 -2.552,5.368 l 0,6.688 20.68,0"
         id="path4056"
         style="font-size:88px;line-height:100%;fill:#202020" />
      <path
         d="m 401.96088,968.5022 -9.856,0 -19.448,-23.32 17.952,-19.272 9.68,0 -18.48,19.272 20.152,23.32 m -30.272,0 -7.92,0 0,-61.6 7.92,0 0,61.6"
         id="path4058"
         style="font-size:88px;line-height:100%;fill:#202020" />
      <path
         d="m 435.724,968.6782 c -2.81603,0.46933 -5.77869,0.704 -8.888,0.704 -5.33868,0 -9.06401,-0.90934 -11.176,-2.728 -2.11201,-1.87733 -3.16801,-5.39733 -3.168,-10.56 l 0,-24.992 -9.504,0 0,-5.192 9.504,0 0,-13.2 8.008,0 0,13.2 15.224,0 0,5.192 -15.224,0 0,25.432 c -2e-5,3.05067 0.58665,5.104 1.76,6.16 1.17331,0.99734 3.54931,1.496 7.128,1.496 0.93864,0 3.05064,-0.23466 6.336,-0.704 l 0,5.192"
         id="path4060"
         style="font-size:88px;line-height:100%;fill:#202020" />
      <path
         d="m 467.34625,931.8062 -4.4,0 c -3.63735,3e-5 -6.33602,0.46937 -8.096,1.408 -1.70135,0.9387 -2.55201,2.6987 -2.552,5.28 l 0,30.008 -7.92,0 0,-42.592 7.48,0 0,6.952 c -10e-6,-2.0533 1.26132,-3.87196 3.784,-5.456 2.58131,-1.58396 5.19198,-2.37596 7.832,-2.376 l 3.872,0 0,6.776"
         id="path4062"
         style="font-size:88px;line-height:100%;fill:#202020" />
      <path
         d="m 512.97975,940.2542 0,14.784 c -4e-5,2.64001 -0.32271,4.86934 -0.968,6.688 -0.64537,1.81867 -1.46671,3.22667 -2.464,4.224 -0.99737,0.99733 -2.4347,1.76 -4.312,2.288 -1.8187,0.528 -3.5787,0.85066 -5.28,0.968 -1.64269,0.11733 -3.84269,0.176 -6.6,0.176 -3.52002,0 -6.27735,-0.11734 -8.272,-0.352 -1.93601,-0.23467 -3.90134,-0.792 -5.896,-1.672 -1.93601,-0.93867 -3.34401,-2.40533 -4.224,-4.4 -0.82134,-1.99466 -1.232,-4.63466 -1.232,-7.92 l 0,-14.784 c 0,-2.81597 0.32266,-5.19197 0.968,-7.128 0.70399,-1.93597 1.52533,-3.43196 2.464,-4.488 0.99733,-1.05596 2.43466,-1.84796 4.312,-2.376 1.87732,-0.58663 3.60799,-0.93863 5.192,-1.056 1.64265,-0.11729 3.87198,-0.17596 6.688,-0.176 2.81597,4e-5 5.01597,0.0587 6.6,0.176 1.64264,0.11737 3.40263,0.46937 5.28,1.056 1.8773,0.52804 3.28529,1.32004 4.224,2.376 0.99729,1.05604 1.81863,2.55203 2.464,4.488 0.70396,1.93603 1.05596,4.31203 1.056,7.128 m -8.096,15.928 0,-17.248 c -3e-5,-3.93064 -0.79203,-6.3653 -2.376,-7.304 -1.58403,-0.93863 -4.63469,-1.40796 -9.152,-1.408 -4.51735,4e-5 -7.56802,0.46937 -9.152,1.408 -1.58401,0.9387 -2.37601,3.37336 -2.376,7.304 l 0,17.248 c -10e-6,1.87734 0.20532,3.37334 0.616,4.488 0.41065,1.11467 1.17332,1.936 2.288,2.464 1.11465,0.46934 2.25865,0.76267 3.432,0.88 1.17331,0.11733 2.90398,0.176 5.192,0.176 2.28797,0 4.01864,-0.0587 5.192,-0.176 1.1733,-0.11733 2.3173,-0.41066 3.432,-0.88 1.11463,-0.528 1.8773,-1.34933 2.288,-2.464 0.41063,-1.11466 0.61597,-2.61066 0.616,-4.488"
         id="path4064"
         style="font-size:88px;line-height:100%;fill:#202020" />
      <path
         d="m 562.02738,968.5022 -7.92,0 0,-30.8 c -4e-5,-1.05597 -0.088,-1.93597 -0.264,-2.64 -0.17604,-0.70397 -0.55737,-1.40797 -1.144,-2.112 -0.52804,-0.76263 -1.4667,-1.31997 -2.816,-1.672 -1.2907,-0.41063 -2.93337,-0.61596 -4.928,-0.616 -4.63469,4e-5 -7.74402,0.4987 -9.328,1.496 -1.58402,0.99737 -2.37602,2.84536 -2.376,5.544 l 0,30.8 -7.92,0 0,-42.592 7.92,0 0,5.192 c 0.82131,-4.04796 5.48531,-6.07196 13.992,-6.072 5.63196,4e-5 9.50396,1.02671 11.616,3.08 2.11195,1.9947 3.16795,5.04537 3.168,9.152 l 0,31.24"
         id="path4066"
         style="font-size:88px;line-height:100%;fill:#202020" />
      <path
         d="m 583.61075,918.7822 -7.92,0 0,-8.272 7.92,0 0,8.272 m 0,49.72 -7.92,0 0,-42.592 7.92,0 0,42.592"
         id="path4068"
         style="font-size:88px;line-height:100%;fill:#202020" />
      <path
         d="m 628.939,953.5422 0,3.696 c -4e-5,4.576 -1.61337,7.744 -4.84,9.504 -3.16803,1.76 -7.74402,2.64 -13.728,2.64 -4.57601,0 -9.44534,-0.352 -14.608,-1.056 l 0,-6.072 c 7.03999,1.11467 11.96798,1.672 14.784,1.672 3.51998,0 6.15998,-0.32266 7.92,-0.968 1.75997,-0.704 2.63997,-2.112 2.64,-4.224 l 0,-4.312 c -3e-5,-1.81865 -0.61603,-3.10932 -1.848,-3.872 -1.23203,-0.76265 -3.22669,-1.14398 -5.984,-1.144 l -4.84,0 c -4.45868,2e-5 -7.83201,-0.90932 -10.12,-2.728 -2.288,-1.87731 -3.432,-4.42931 -3.432,-7.656 l 0,-3.96 c 0,-6.68796 6.33599,-10.03196 19.008,-10.032 1.40798,4e-5 5.71997,0.23471 12.936,0.704 l 0,5.72 c -5.04536,-0.8213 -9.47469,-1.23196 -13.288,-1.232 -4.22402,4e-5 -7.09868,0.4107 -8.624,1.232 -1.46668,0.82137 -2.20001,2.20003 -2.2,4.136 l 0,3.608 c -1e-5,2.87469 2.61065,4.31202 7.832,4.312 l 4.928,0 c 8.97597,2e-5 13.46396,3.34402 13.464,10.032"
         id="path4070"
         style="font-size:88px;line-height:100%;fill:#202020" />
      <path
         d="m 677.99213,968.5022 -9.856,0 -19.448,-23.32 17.952,-19.272 9.68,0 -18.48,19.272 20.152,23.32 m -30.272,0 -7.92,0 0,-61.6 7.92,0 0,61.6"
         id="path4072"
         style="font-size:88px;line-height:100%;fill:#202020" />
      <path
         d="m 745.0605,917.3742 -30.712,0 0,18.656 27.808,0 0,5.984 -27.808,0 0,26.488 -8.536,0 0,-57.112 39.248,0 0,5.984"
         id="path4074"
         style="font-size:88px;line-height:100%;fill:#202020" />
      <path
         d="m 792.27663,940.2542 0,14.784 c -5e-5,2.64001 -0.32271,4.86934 -0.968,6.688 -0.64538,1.81867 -1.46671,3.22667 -2.464,4.224 -0.99738,0.99733 -2.43471,1.76 -4.312,2.288 -1.8187,0.528 -3.5787,0.85066 -5.28,0.968 -1.6427,0.11733 -3.8427,0.176 -6.6,0.176 -3.52002,0 -6.27736,-0.11734 -8.272,-0.352 -1.93602,-0.23467 -3.90135,-0.792 -5.896,-1.672 -1.93601,-0.93867 -3.34401,-2.40533 -4.224,-4.4 -0.82134,-1.99466 -1.23201,-4.63466 -1.232,-7.92 l 0,-14.784 c -10e-6,-2.81597 0.32266,-5.19197 0.968,-7.128 0.70399,-1.93597 1.52532,-3.43196 2.464,-4.488 0.99732,-1.05596 2.43465,-1.84796 4.312,-2.376 1.87732,-0.58663 3.60798,-0.93863 5.192,-1.056 1.64264,-0.11729 3.87197,-0.17596 6.688,-0.176 2.81597,4e-5 5.01597,0.0587 6.6,0.176 1.64263,0.11737 3.40263,0.46937 5.28,1.056 1.87729,0.52804 3.28529,1.32004 4.224,2.376 0.99729,1.05604 1.81862,2.55203 2.464,4.488 0.70395,1.93603 1.05595,4.31203 1.056,7.128 m -8.096,15.928 0,-17.248 c -4e-5,-3.93064 -0.79204,-6.3653 -2.376,-7.304 -1.58404,-0.93863 -4.6347,-1.40796 -9.152,-1.408 -4.51736,4e-5 -7.56802,0.46937 -9.152,1.408 -1.58402,0.9387 -2.37602,3.37336 -2.376,7.304 l 0,17.248 c -2e-5,1.87734 0.20532,3.37334 0.616,4.488 0.41065,1.11467 1.17331,1.936 2.288,2.464 1.11465,0.46934 2.25864,0.76267 3.432,0.88 1.17331,0.11733 2.90397,0.176 5.192,0.176 2.28797,0 4.01863,-0.0587 5.192,-0.176 1.1733,-0.11733 2.3173,-0.41066 3.432,-0.88 1.11463,-0.528 1.87729,-1.34933 2.288,-2.464 0.41063,-1.11466 0.61596,-2.61066 0.616,-4.488"
         id="path4076"
         style="font-size:88px;line-height:100%;fill:#202020" />
      <path
         d="m 827.59625,931.8062 -4.4,0 c -3.63735,3e-5 -6.33602,0.46937 -8.096,1.408 -1.70135,0.9387 -2.55201,2.6987 -2.552,5.28 l 0,30.008 -7.92,0 0,-42.592 7.48,0 0,6.952 c -10e-6,-2.0533 1.26132,-3.87196 3.784,-5.456 2.58131,-1.58396 5.19198,-2.37596 7.832,-2.376 l 3.872,0 0,6.776"
         id="path4078"
         style="font-size:88px;line-height:100%;fill:#202020" />
      <path
         d="m 874.37375,954.5982 c -4e-5,2.58134 -0.38138,4.81067 -1.144,6.688 -0.76271,1.87734 -1.73071,3.344 -2.904,4.4 -1.11471,0.99733 -2.6107,1.78933 -4.488,2.376 -1.87737,0.58666 -3.63737,0.93866 -5.28,1.056 -1.6427,0.176 -3.63736,0.264 -5.984,0.264 -2.34669,0 -4.63469,-0.29334 -6.864,-0.88 -2.22935,-0.58667 -3.63735,-1.496 -4.224,-2.728 l 0,21.032 -7.92,0 0,-60.896 7.832,0 0,4.576 0.088,0 c 0.64532,-3.63729 5.48531,-5.45596 14.52,-5.456 5.69063,4e-5 9.82663,1.20271 12.408,3.608 2.63996,2.3467 3.95996,5.1627 3.96,8.448 l 0,17.512 m -8.096,0.968 0,-15.664 c -4e-5,-3.93064 -0.8507,-6.42397 -2.552,-7.48 -1.70136,-1.11463 -4.7227,-1.67196 -9.064,-1.672 -4.34135,4e-5 -7.30402,0.52803 -8.888,1.584 -1.52535,1.05603 -2.28801,3.5787 -2.288,7.568 l 0,15.664 c -1e-5,3.57867 0.79199,5.896 2.376,6.952 1.64265,0.99734 4.60531,1.496 8.888,1.496 4.3413,0 7.3333,-0.49866 8.976,-1.496 1.7013,-1.056 2.55196,-3.37333 2.552,-6.952"
         id="path4080"
         style="font-size:88px;line-height:100%;fill:#202020" />
      <path
         d="m 924.10475,940.2542 0,14.784 c -4e-5,2.64001 -0.32271,4.86934 -0.968,6.688 -0.64537,1.81867 -1.46671,3.22667 -2.464,4.224 -0.99737,0.99733 -2.4347,1.76 -4.312,2.288 -1.8187,0.528 -3.5787,0.85066 -5.28,0.968 -1.64269,0.11733 -3.84269,0.176 -6.6,0.176 -3.52002,0 -6.27735,-0.11734 -8.272,-0.352 -1.93601,-0.23467 -3.90134,-0.792 -5.896,-1.672 -1.93601,-0.93867 -3.34401,-2.40533 -4.224,-4.4 -0.82134,-1.99466 -1.232,-4.63466 -1.232,-7.92 l 0,-14.784 c 0,-2.81597 0.32266,-5.19197 0.968,-7.128 0.70399,-1.93597 1.52533,-3.43196 2.464,-4.488 0.99733,-1.05596 2.43466,-1.84796 4.312,-2.376 1.87732,-0.58663 3.60799,-0.93863 5.192,-1.056 1.64265,-0.11729 3.87198,-0.17596 6.688,-0.176 2.81597,4e-5 5.01597,0.0587 6.6,0.176 1.64264,0.11737 3.40263,0.46937 5.28,1.056 1.8773,0.52804 3.28529,1.32004 4.224,2.376 0.99729,1.05604 1.81863,2.55203 2.464,4.488 0.70396,1.93603 1.05596,4.31203 1.056,7.128 m -8.096,15.928 0,-17.248 c -3e-5,-3.93064 -0.79203,-6.3653 -2.376,-7.304 -1.58403,-0.93863 -4.63469,-1.40796 -9.152,-1.408 -4.51735,4e-5 -7.56802,0.46937 -9.152,1.408 -1.58401,0.9387 -2.37601,3.37336 -2.376,7.304 l 0,17.248 c -1e-5,1.87734 0.20532,3.37334 0.616,4.488 0.41065,1.11467 1.17332,1.936 2.288,2.464 1.11465,0.46934 2.25865,0.76267 3.432,0.88 1.17331,0.11733 2.90398,0.176 5.192,0.176 2.28797,0 4.01864,-0.0587 5.192,-0.176 1.1733,-0.11733 2.3173,-0.41066 3.432,-0.88 1.11463,-0.528 1.8773,-1.34933 2.288,-2.464 0.41063,-1.11466 0.61597,-2.61066 0.616,-4.488"
         id="path4082"
         style="font-size:88px;line-height:100%;fill:#202020" />
      <path
         d="m 968.04838,953.5422 0,3.696 c -4e-5,4.576 -1.61337,7.744 -4.84,9.504 -3.16803,1.76 -7.74403,2.64 -13.728,2.64 -4.57602,0 -9.44535,-0.352 -14.608,-1.056 l 0,-6.072 c 7.03998,1.11467 11.96798,1.672 14.784,1.672 3.51997,0 6.15997,-0.32266 7.92,-0.968 1.75997,-0.704 2.63997,-2.112 2.64,-4.224 l 0,-4.312 c -3e-5,-1.81865 -0.61603,-3.10932 -1.848,-3.872 -1.23203,-0.76265 -3.2267,-1.14398 -5.984,-1.144 l -4.84,0 c -4.45868,2e-5 -7.83201,-0.90932 -10.12,-2.728 -2.28801,-1.87731 -3.43201,-4.42931 -3.432,-7.656 l 0,-3.96 c -10e-6,-6.68796 6.33599,-10.03196 19.008,-10.032 1.40797,4e-5 5.71997,0.23471 12.936,0.704 l 0,5.72 c -5.04537,-0.8213 -9.4747,-1.23196 -13.288,-1.232 -4.22402,4e-5 -7.09869,0.4107 -8.624,1.232 -1.46668,0.82137 -2.20002,2.20003 -2.2,4.136 l 0,3.608 c -2e-5,2.87469 2.61065,4.31202 7.832,4.312 l 4.928,0 c 8.97596,2e-5 13.46396,3.34402 13.464,10.032"
         id="path4084"
         style="font-size:88px;line-height:100%;fill:#202020" />
      <path
         d="m 1005.6615,968.6782 c -2.816,0.46933 -5.77869,0.704 -8.888,0.704 -5.33868,0 -9.06401,-0.90934 -11.176,-2.728 -2.11201,-1.87733 -3.16801,-5.39733 -3.168,-10.56 l 0,-24.992 -9.504,0 0,-5.192 9.504,0 0,-13.2 8.008,0 0,13.2 15.224,0 0,5.192 -15.224,0 0,25.432 c -2e-5,3.05067 0.58665,5.104 1.76,6.16 1.17331,0.99734 3.54931,1.496 7.128,1.496 0.9386,0 3.0506,-0.23466 6.336,-0.704 l 0,5.192"
         id="path4086"
         style="font-size:88px;line-height:100%;fill:#202020" />
      <path
         d="m 1083.965,968.5022 -10.296,0 -31.064,-47.96 0,47.96 -7.48,0 0,-57.112 10.296,0 31.064,47.168 0,-47.168 7.48,0 0,57.112"
         id="path4088"
         style="font-size:88px;line-height:100%;fill:#202020" />
      <path
         d="m 1135.8548,940.2542 0,14.784 c -10e-5,2.64001 -0.3228,4.86934 -0.968,6.688 -0.6454,1.81867 -1.4668,3.22667 -2.464,4.224 -0.9974,0.99733 -2.4348,1.76 -4.312,2.288 -1.8187,0.528 -3.5787,0.85066 -5.28,0.968 -1.6427,0.11733 -3.8427,0.176 -6.6,0.176 -3.5201,0 -6.2774,-0.11734 -8.272,-0.352 -1.9361,-0.23467 -3.9014,-0.792 -5.896,-1.672 -1.9361,-0.93867 -3.3441,-2.40533 -4.224,-4.4 -0.8214,-1.99466 -1.2321,-4.63466 -1.232,-7.92 l 0,-14.784 c -10e-5,-2.81597 0.3226,-5.19197 0.968,-7.128 0.7039,-1.93597 1.5253,-3.43196 2.464,-4.488 0.9973,-1.05596 2.4346,-1.84796 4.312,-2.376 1.8773,-0.58663 3.6079,-0.93863 5.192,-1.056 1.6426,-0.11729 3.8719,-0.17596 6.688,-0.176 2.8159,4e-5 5.0159,0.0587 6.6,0.176 1.6426,0.11737 3.4026,0.46937 5.28,1.056 1.8772,0.52804 3.2852,1.32004 4.224,2.376 0.9972,1.05604 1.8186,2.55203 2.464,4.488 0.7039,1.93603 1.0559,4.31203 1.056,7.128 m -8.096,15.928 0,-17.248 c -10e-5,-3.93064 -0.7921,-6.3653 -2.376,-7.304 -1.5841,-0.93863 -4.6347,-1.40796 -9.152,-1.408 -4.5174,4e-5 -7.5681,0.46937 -9.152,1.408 -1.5841,0.9387 -2.3761,3.37336 -2.376,7.304 l 0,17.248 c -10e-5,1.87734 0.2053,3.37334 0.616,4.488 0.4106,1.11467 1.1733,1.936 2.288,2.464 1.1146,0.46934 2.2586,0.76267 3.432,0.88 1.1733,0.11733 2.9039,0.176 5.192,0.176 2.2879,0 4.0186,-0.0587 5.192,-0.176 1.1733,-0.11733 2.3173,-0.41066 3.432,-0.88 1.1146,-0.528 1.8772,-1.34933 2.288,-2.464 0.4106,-1.11466 0.6159,-2.61066 0.616,-4.488"
         id="path4090"
         style="font-size:88px;line-height:100%;fill:#202020" />
      <path
         d="m 1171.1744,931.8062 -4.4,0 c -3.6374,3e-5 -6.336,0.46937 -8.096,1.408 -1.7014,0.9387 -2.552,2.6987 -2.552,5.28 l 0,30.008 -7.92,0 0,-42.592 7.48,0 0,6.952 c 0,-2.0533 1.2613,-3.87196 3.784,-5.456 2.5813,-1.58396 5.192,-2.37596 7.832,-2.376 l 3.872,0 0,6.776"
         id="path4092"
         style="font-size:88px;line-height:100%;fill:#202020" />
      <path
         d="m 1215.4879,925.9102 0,46.64 c -10e-5,6.04265 -1.7014,10.09065 -5.104,12.144 -3.3441,2.11198 -8.3894,3.16798 -15.136,3.168 -6.0427,-2e-5 -10.9414,-0.32269 -14.696,-0.968 l 0,-5.632 c 6.7466,0.82132 11.88,1.23198 15.4,1.232 4.0479,-2e-5 6.9813,-0.64535 8.8,-1.936 1.8773,-1.29068 2.8159,-3.43201 2.816,-6.424 l 0,-10.208 c -0.1174,1.99467 -1.4961,3.40267 -4.136,4.224 -2.5814,0.82133 -5.544,1.232 -8.888,1.232 -6.5707,0 -11.0587,-0.968 -13.464,-2.904 -2.3467,-1.936 -3.52,-5.28 -3.52,-10.032 l 0,-17.336 c 0,-5.0453 1.3493,-8.6533 4.048,-10.824 2.7573,-2.17063 7.2453,-3.25596 13.464,-3.256 7.3919,4e-5 11.7333,1.67204 13.024,5.016 l 0,-4.136 7.392,0 m -7.92,31.064 0,-19.272 c -10e-5,-2.7573 -0.7627,-4.63463 -2.288,-5.632 -1.4667,-1.05597 -4.5467,-1.58396 -9.24,-1.584 -4.4,4e-5 -7.2747,0.4987 -8.624,1.496 -1.3494,0.99737 -2.024,2.90403 -2.024,5.72 l 0,19.272 c 0,2.93334 0.704,4.86934 2.112,5.808 1.4666,0.88 4.3706,1.32 8.712,1.32 3.9893,0 6.8639,-0.46933 8.624,-1.408 1.8186,-0.99733 2.7279,-2.90399 2.728,-5.72"
         id="path4094"
         style="font-size:88px;line-height:100%;fill:#202020" />
      <path
         d="m 1264.1835,948.9662 -28.6,0 0,6.424 c 0,2.99201 1.056,5.13334 3.168,6.424 2.112,1.232 5.2506,1.848 9.416,1.848 4.048,0 8.8293,-0.704 14.344,-2.112 l 0,6.072 c -5.28,1.17333 -10.4134,1.76 -15.4,1.76 -13.024,0 -19.536,-4.34133 -19.536,-13.024 l 0,-16.808 c 0,-5.2213 1.496,-8.94663 4.488,-11.176 2.992,-2.22929 7.7733,-3.34396 14.344,-3.344 6.16,4e-5 10.648,1.08537 13.464,3.256 2.8746,2.11204 4.312,5.8667 4.312,11.264 l 0,9.416 m -7.92,-5.192 0,-6.688 c 0,-2.5813 -0.792,-4.3413 -2.376,-5.28 -1.584,-0.9973 -4.224,-1.49596 -7.92,-1.496 -3.52,4e-5 -6.1307,0.46937 -7.832,1.408 -1.7013,0.9387 -2.552,2.72803 -2.552,5.368 l 0,6.688 20.68,0"
         id="path4096"
         style="font-size:88px;line-height:100%;fill:#202020" />
    </g>
  </g>
</svg>
