<?xml version="1.0" encoding="UTF-8" standalone="no"?>
<!-- Created with Inkscape (http://www.inkscape.org/) -->

<svg
   version="1.1"
   width="580"
   height="224"
   id="svg2"
   sodipodi:docname="efnlogo-vertical-text-white.svg"
   inkscape:version="1.2 (1:1.2.1+202207142221+cd75a1ee6d)"
   xmlns:inkscape="http://www.inkscape.org/namespaces/inkscape"
   xmlns:sodipodi="http://sodipodi.sourceforge.net/DTD/sodipodi-0.dtd"
   xmlns="http://www.w3.org/2000/svg"
   xmlns:svg="http://www.w3.org/2000/svg"
   xmlns:rdf="http://www.w3.org/1999/02/22-rdf-syntax-ns#"
   xmlns:cc="http://creativecommons.org/ns#"
   xmlns:dc="http://purl.org/dc/elements/1.1/">
  <sodipodi:namedview
     id="namedview48"
     pagecolor="#505050"
     bordercolor="#eeeeee"
     borderopacity="1"
     inkscape:showpageshadow="0"
     inkscape:pageopacity="0"
     inkscape:pagecheckerboard="0"
     inkscape:deskcolor="#505050"
     showgrid="false"
     inkscape:zoom="2.2758621"
     inkscape:cx="290"
     inkscape:cy="112.26515"
     inkscape:window-width="1856"
     inkscape:window-height="1016"
     inkscape:window-x="64"
     inkscape:window-y="27"
     inkscape:window-maximized="1"
     inkscape:current-layer="layer1" />
  <defs
     id="defs4" />
  <metadata
     id="metadata7">
    <rdf:RDF>
      <cc:Work
         rdf:about="">
        <dc:format>image/svg+xml</dc:format>
        <dc:type
           rdf:resource="http://purl.org/dc/dcmitype/StillImage" />
      </cc:Work>
    </rdf:RDF>
  </metadata>
  <g
     transform="translate(-0.50000049,-827.86218)"
     id="layer1">
    <path
       d="m 243,956.86218 a 106.5,106.5 0 1 1 -213,0 106.5,106.5 0 1 1 213,0 z"
       transform="matrix(0.95412844,0,0,0.95412844,-17.738532,26.89276)"
       id="path3877"
       style="fill:#f7931d;fill-opacity:1;stroke:#202020;stroke-width:5;stroke-linecap:round;stroke-linejoin:round;stroke-miterlimit:4;stroke-opacity:1;stroke-dasharray:none" />
    <g
       transform="translate(0.5,-0.50000151)"
       id="g3940">
      <path
         d="m 165,1025.8622 -53,-188.00002 88.5,53.5 -142.5,134.50002 0,-172.00002 155.5,86.5 -190.5,48.5 89,-151.5"
         id="path3936"
         style="fill:none;stroke:#202020;stroke-width:3;stroke-linecap:butt;stroke-linejoin:miter;stroke-miterlimit:4;stroke-opacity:1;stroke-dasharray:none" />
      <path
         d="m 200.5,988.86218 -177.5,-97.5 89,150.00002 53,-187.50002 -154.5,86"
         id="path3938"
         style="fill:none;stroke:#000000;stroke-width:3;stroke-linecap:butt;stroke-linejoin:miter;stroke-miterlimit:4;stroke-opacity:1;stroke-dasharray:none" />
    </g>
    <g
       transform="translate(0.5,-0.50000151)"
       id="g3903">
      <path
         d="m 119,806.36218 a 8,8 0 1 1 -16,0 8,8 0 1 1 16,0 z"
         transform="matrix(0.95238096,0,0,0.95238095,6.2857135,70.898201)"
         id="path3879"
         style="fill:#ffffff;fill-opacity:1;stroke:#202020;stroke-width:5;stroke-linecap:round;stroke-linejoin:round;stroke-miterlimit:4;stroke-opacity:1;stroke-dasharray:none" />
      <path
         d="m 119,806.36218 a 8,8 0 1 1 -16,0 8,8 0 1 1 16,0 z"
         transform="matrix(0.95238096,0,0,0.95238095,6.2857135,273.8982)"
         id="path3881"
         style="fill:#ffffff;fill-opacity:1;stroke:#202020;stroke-width:5;stroke-linecap:round;stroke-linejoin:round;stroke-miterlimit:4;stroke-opacity:1;stroke-dasharray:none" />
      <path
         d="m 119,806.36218 a 8,8 0 1 1 -16,0 8,8 0 1 1 16,0 z"
         transform="matrix(0.95238096,0,0,0.95238095,-95.214286,172.3982)"
         id="path3883"
         style="fill:#ffffff;fill-opacity:1;stroke:#202020;stroke-width:5;stroke-linecap:round;stroke-linejoin:round;stroke-miterlimit:4;stroke-opacity:1;stroke-dasharray:none" />
      <path
         d="m 119,806.36218 a 8,8 0 1 1 -16,0 8,8 0 1 1 16,0 z"
         transform="matrix(0.95238096,0,0,0.95238095,107.78571,172.3982)"
         id="path3885"
         style="fill:#ffffff;fill-opacity:1;stroke:#202020;stroke-width:5;stroke-linecap:round;stroke-linejoin:round;stroke-miterlimit:4;stroke-opacity:1;stroke-dasharray:none" />
      <path
         d="m 119,806.36218 a 8,8 0 1 1 -16,0 8,8 0 1 1 16,0 z"
         transform="matrix(0.95238096,0,0,0.95238095,-47.714286,86.398201)"
         id="path3887"
         style="fill:#ffffff;fill-opacity:1;stroke:#202020;stroke-width:5;stroke-linecap:round;stroke-linejoin:round;stroke-miterlimit:4;stroke-opacity:1;stroke-dasharray:none" />
      <path
         d="m 119,806.36218 a 8,8 0 1 1 -16,0 8,8 0 1 1 16,0 z"
         transform="matrix(0.95238096,0,0,0.95238095,-82.714286,123.8982)"
         id="path3889"
         style="fill:#ffffff;fill-opacity:1;stroke:#202020;stroke-width:5;stroke-linecap:round;stroke-linejoin:round;stroke-miterlimit:4;stroke-opacity:1;stroke-dasharray:none" />
      <path
         d="m 119,806.36218 a 8,8 0 1 1 -16,0 8,8 0 1 1 16,0 z"
         transform="matrix(0.95238096,0,0,0.95238095,59.285714,86.398201)"
         id="path3891"
         style="fill:#ffffff;fill-opacity:1;stroke:#202020;stroke-width:5;stroke-linecap:round;stroke-linejoin:round;stroke-miterlimit:4;stroke-opacity:1;stroke-dasharray:none" />
      <path
         d="m 119,806.36218 a 8,8 0 1 1 -16,0 8,8 0 1 1 16,0 z"
         transform="matrix(0.95238096,0,0,0.95238095,94.785714,123.3982)"
         id="path3893"
         style="fill:#ffffff;fill-opacity:1;stroke:#202020;stroke-width:5;stroke-linecap:round;stroke-linejoin:round;stroke-miterlimit:4;stroke-opacity:1;stroke-dasharray:none" />
      <path
         d="m 119,806.36218 a 8,8 0 1 1 -16,0 8,8 0 1 1 16,0 z"
         transform="matrix(0.95238096,0,0,0.95238095,-82.714286,221.3982)"
         id="path3895"
         style="fill:#ffffff;fill-opacity:1;stroke:#202020;stroke-width:5;stroke-linecap:round;stroke-linejoin:round;stroke-miterlimit:4;stroke-opacity:1;stroke-dasharray:none" />
      <path
         d="m 119,806.36218 a 8,8 0 1 1 -16,0 8,8 0 1 1 16,0 z"
         transform="matrix(0.95238096,0,0,0.95238095,-47.714286,258.3982)"
         id="path3897"
         style="fill:#ffffff;fill-opacity:1;stroke:#202020;stroke-width:5;stroke-linecap:round;stroke-linejoin:round;stroke-miterlimit:4;stroke-opacity:1;stroke-dasharray:none" />
      <path
         d="m 119,806.36218 a 8,8 0 1 1 -16,0 8,8 0 1 1 16,0 z"
         transform="matrix(0.95238096,0,0,0.95238095,59.285714,258.3982)"
         id="path3899"
         style="fill:#ffffff;fill-opacity:1;stroke:#202020;stroke-width:5;stroke-linecap:round;stroke-linejoin:round;stroke-miterlimit:4;stroke-opacity:1;stroke-dasharray:none" />
      <path
         d="m 119,806.36218 a 8,8 0 1 1 -16,0 8,8 0 1 1 16,0 z"
         transform="matrix(0.95238096,0,0,0.95238095,94.785714,221.3982)"
         id="path3901"
         style="fill:#ffffff;fill-opacity:1;stroke:#202020;stroke-width:5;stroke-linecap:round;stroke-linejoin:round;stroke-miterlimit:4;stroke-opacity:1;stroke-dasharray:none" />
    </g>
    <path
       d="m 30.5,905.36218 0,69 71,0 0,-29.5 32,0 0,-12 -32,0 0,-16 40.5,0 0,57.5 13,0 0,-45.5 29,45.5 14.5,0 0,-69 -13,0 0,46.5 -29.5,-46.5 -68.5,0 0,57 -43,0 0,-17.5 34,0 0,-12 -34.5,0 0,-16 38.5,0 0,-11.5 z"
       id="path3944"
       style="fill:#202020;fill-opacity:1;stroke:#ffffff;stroke-width:3;stroke-linecap:butt;stroke-linejoin:miter;stroke-miterlimit:4;stroke-opacity:1;stroke-dasharray:none" />
    <g
       id="text3965"
       style="font-size:64px;font-style:normal;font-variant:normal;font-weight:normal;font-stretch:normal;line-height:125%;letter-spacing:0px;word-spacing:0px;fill:#ffffff;fill-opacity:1;stroke:none;font-family:Play;-inkscape-font-specification:Play">
      <path
         d="m 274.42,895.86214 -28.544,0 0,-41.536 27.904,0 0,4.352 -21.696,0 0,13.568 19.584,0 0,4.352 -19.584,0 0,14.912 22.336,0 0,4.352"
         id="path3982"
         style="line-height:100%;fill:#ffffff" />
      <path
         d="m 288.377,895.86214 -5.76,0 0,-44.8 5.76,0 0,44.8"
         id="path3984"
         style="line-height:100%;fill:#ffffff" />
      <path
         d="m 323.839,881.65414 -20.8,0 0,4.672 c -10e-6,2.17601 0.76799,3.73334 2.304,4.672 1.53599,0.89601 3.81865,1.34401 6.848,1.344 2.94398,10e-6 6.42131,-0.51199 10.432,-1.536 l 0,4.416 c -3.84003,0.85334 -7.57336,1.28 -11.2,1.28 -9.47201,0 -14.208,-3.15733 -14.208,-9.472 l 0,-12.224 c 0,-3.79731 1.088,-6.50664 3.264,-8.128 2.17599,-1.6213 5.65332,-2.43197 10.432,-2.432 4.47998,3e-5 7.74397,0.78937 9.792,2.368 2.09064,1.53603 3.13597,4.26669 3.136,8.192 l 0,6.848 m -5.76,-3.776 0,-4.864 c -2e-5,-1.87731 -0.57602,-3.1573 -1.728,-3.84 -1.15202,-0.7253 -3.07202,-1.08797 -5.76,-1.088 -2.56001,3e-5 -4.45868,0.34136 -5.696,1.024 -1.23734,0.6827 -1.85601,1.98403 -1.856,3.904 l 0,4.864 15.04,0"
         id="path3986"
         style="line-height:100%;fill:#ffffff" />
      <path
         d="m 360.393,895.86214 -7.168,0 -14.144,-16.96 13.056,-14.016 7.04,0 -13.44,14.016 14.656,16.96 m -22.016,0 -5.76,0 0,-44.8 5.76,0 0,44.8"
         id="path3988"
         style="line-height:100%;fill:#ffffff" />
      <path
         d="m 384.948,895.99014 c -2.04802,0.34134 -4.20269,0.512 -6.464,0.512 -3.88268,0 -6.59201,-0.66133 -8.128,-1.984 -1.53601,-1.36533 -2.30401,-3.92533 -2.304,-7.68 l 0,-18.176 -6.912,0 0,-3.776 6.912,0 0,-9.6 5.824,0 0,9.6 11.072,0 0,3.776 -11.072,0 0,18.496 c -10e-6,2.21868 0.42665,3.71201 1.28,4.48 0.85332,0.72534 2.58132,1.08801 5.184,1.088 0.68265,10e-6 2.21864,-0.17066 4.608,-0.512 l 0,3.776"
         id="path3990"
         style="line-height:100%;fill:#ffffff" />
      <path
         d="m 407.946,869.17414 -3.2,0 c -2.64535,3e-5 -4.60801,0.34136 -5.888,1.024 -1.23734,0.68269 -1.85601,1.96269 -1.856,3.84 l 0,21.824 -5.76,0 0,-30.976 5.44,0 0,5.056 c -1e-5,-1.4933 0.91732,-2.81597 2.752,-3.968 1.87732,-1.15197 3.77598,-1.72797 5.696,-1.728 l 2.816,0 0,4.928"
         id="path3992"
         style="line-height:100%;fill:#ffffff" />
      <path
         d="m 441.134,875.31814 0,10.752 c -3e-5,1.92001 -0.2347,3.54134 -0.704,4.864 -0.46936,1.32267 -1.0667,2.34667 -1.792,3.072 -0.72536,0.72534 -1.77069,1.28 -3.136,1.664 -1.32269,0.384 -2.60269,0.61867 -3.84,0.704 -1.19469,0.0853 -2.79469,0.128 -4.8,0.128 -2.56002,0 -4.56535,-0.0853 -6.016,-0.256 -1.40801,-0.17066 -2.83734,-0.576 -4.288,-1.216 -1.40801,-0.68266 -2.43201,-1.74933 -3.072,-3.2 -0.59734,-1.45066 -0.896,-3.37066 -0.896,-5.76 l 0,-10.752 c 0,-2.04797 0.23466,-3.77597 0.704,-5.184 0.51199,-1.40797 1.10933,-2.49597 1.792,-3.264 0.72533,-0.76797 1.77066,-1.34397 3.136,-1.728 1.36532,-0.42663 2.62399,-0.68263 3.776,-0.768 1.19465,-0.0853 2.81598,-0.12797 4.864,-0.128 2.04798,3e-5 3.64798,0.0427 4.8,0.128 1.19464,0.0854 2.47464,0.34137 3.84,0.768 1.36531,0.38403 2.3893,0.96003 3.072,1.728 0.7253,0.76803 1.32264,1.85603 1.792,3.264 0.51197,1.40803 0.76797,3.13603 0.768,5.184 m -5.888,11.584 0,-12.544 c -3e-5,-2.85864 -0.57603,-4.6293 -1.728,-5.312 -1.15202,-0.68264 -3.37069,-1.02397 -6.656,-1.024 -3.28535,3e-5 -5.50401,0.34136 -6.656,1.024 -1.15201,0.6827 -1.72801,2.45336 -1.728,5.312 l 0,12.544 c -1e-5,1.36534 0.14932,2.45334 0.448,3.264 0.29866,0.81067 0.85332,1.40801 1.664,1.792 0.81065,0.34134 1.64265,0.55467 2.496,0.64 0.85332,0.0853 2.11198,0.12801 3.776,0.128 1.66398,10e-6 2.92265,-0.0427 3.776,-0.128 0.85331,-0.0853 1.68531,-0.29866 2.496,-0.64 0.81064,-0.38399 1.36531,-0.98133 1.664,-1.792 0.29864,-0.81066 0.44797,-1.89866 0.448,-3.264"
         id="path3994"
         style="line-height:100%;fill:#ffffff" />
      <path
         d="m 476.805,895.86214 -5.76,0 0,-22.4 c -3e-5,-0.76797 -0.064,-1.40797 -0.192,-1.92 -0.12803,-0.51197 -0.40536,-1.02397 -0.832,-1.536 -0.38402,-0.55464 -1.06669,-0.95997 -2.048,-1.216 -0.93869,-0.29864 -2.13335,-0.44797 -3.584,-0.448 -3.37068,3e-5 -5.63201,0.3627 -6.784,1.088 -1.15201,0.72536 -1.72801,2.06936 -1.728,4.032 l 0,22.4 -5.76,0 0,-30.976 5.76,0 0,3.776 c 0.59732,-2.94397 3.98932,-4.41597 10.176,-4.416 4.09597,3e-5 6.91197,0.7467 8.448,2.24 1.53597,1.4507 2.30397,3.66936 2.304,6.656 l 0,22.72"
         id="path3996"
         style="line-height:100%;fill:#ffffff" />
      <path
         d="m 492.502,859.70214 -5.76,0 0,-6.016 5.76,0 0,6.016 m 0,36.16 -5.76,0 0,-30.976 5.76,0 0,30.976"
         id="path3998"
         style="line-height:100%;fill:#ffffff" />
      <path
         d="m 525.468,884.98214 0,2.688 c -3e-5,3.32801 -1.17336,5.63201 -3.52,6.912 -2.30402,1.28 -5.63202,1.92 -9.984,1.92 -3.32801,0 -6.86934,-0.256 -10.624,-0.768 l 0,-4.416 c 5.11999,0.81067 8.70399,1.21601 10.752,1.216 2.55998,10e-6 4.47998,-0.23466 5.76,-0.704 1.27998,-0.51199 1.91998,-1.53599 1.92,-3.072 l 0,-3.136 c -2e-5,-1.32265 -0.44802,-2.26132 -1.344,-2.816 -0.89602,-0.55465 -2.34669,-0.83198 -4.352,-0.832 l -3.52,0 c -3.24268,2e-5 -5.69601,-0.66132 -7.36,-1.984 -1.664,-1.36531 -2.496,-3.22131 -2.496,-5.568 l 0,-2.88 c 0,-4.86397 4.60799,-7.29597 13.824,-7.296 1.02398,3e-5 4.15998,0.1707 9.408,0.512 l 0,4.16 c -3.66936,-0.5973 -6.89069,-0.89597 -9.664,-0.896 -3.07201,3e-5 -5.16268,0.2987 -6.272,0.896 -1.06668,0.59736 -1.60001,1.60003 -1.6,3.008 l 0,2.624 c -1e-5,2.09069 1.89866,3.13602 5.696,3.136 l 3.584,0 c 6.52798,2e-5 9.79197,2.43202 9.792,7.296"
         id="path4000"
         style="line-height:100%;fill:#ffffff" />
      <path
         d="m 561.143,895.86214 -7.168,0 -14.144,-16.96 13.056,-14.016 7.04,0 -13.44,14.016 14.656,16.96 m -22.016,0 -5.76,0 0,-44.8 5.76,0 0,44.8"
         id="path4002"
         style="line-height:100%;fill:#ffffff" />
      <path
         d="m 274.42,922.67814 -22.336,0 0,13.568 20.224,0 0,4.352 -20.224,0 0,19.264 -6.208,0 0,-41.536 28.544,0 0,4.352"
         id="path4004"
         style="line-height:100%;fill:#ffffff" />
      <path
         d="m 308.759,939.31814 0,10.752 c -3e-5,1.92001 -0.2347,3.54134 -0.704,4.864 -0.46936,1.32267 -1.0667,2.34667 -1.792,3.072 -0.72536,0.72534 -1.77069,1.28 -3.136,1.664 -1.32269,0.384 -2.60269,0.61867 -3.84,0.704 -1.19469,0.0853 -2.79469,0.128 -4.8,0.128 -2.56002,0 -4.56535,-0.0853 -6.016,-0.256 -1.40801,-0.17066 -2.83734,-0.576 -4.288,-1.216 -1.40801,-0.68266 -2.43201,-1.74933 -3.072,-3.2 -0.59734,-1.45066 -0.896,-3.37066 -0.896,-5.76 l 0,-10.752 c 0,-2.04797 0.23466,-3.77597 0.704,-5.184 0.51199,-1.40797 1.10933,-2.49597 1.792,-3.264 0.72533,-0.76797 1.77066,-1.34397 3.136,-1.728 1.36532,-0.42663 2.62399,-0.68263 3.776,-0.768 1.19465,-0.0853 2.81598,-0.12797 4.864,-0.128 2.04798,3e-5 3.64798,0.0427 4.8,0.128 1.19464,0.0854 2.47464,0.34137 3.84,0.768 1.36531,0.38403 2.3893,0.96003 3.072,1.728 0.7253,0.76803 1.32264,1.85603 1.792,3.264 0.51197,1.40803 0.76797,3.13603 0.768,5.184 m -5.888,11.584 0,-12.544 c -3e-5,-2.85864 -0.57603,-4.6293 -1.728,-5.312 -1.15202,-0.68264 -3.37069,-1.02397 -6.656,-1.024 -3.28535,3e-5 -5.50401,0.34136 -6.656,1.024 -1.15201,0.6827 -1.72801,2.45336 -1.728,5.312 l 0,12.544 c -1e-5,1.36534 0.14932,2.45334 0.448,3.264 0.29866,0.81067 0.85332,1.40801 1.664,1.792 0.81065,0.34134 1.64265,0.55467 2.496,0.64 0.85332,0.0853 2.11198,0.12801 3.776,0.128 1.66398,10e-6 2.92265,-0.0427 3.776,-0.128 0.85331,-0.0853 1.68531,-0.29866 2.496,-0.64 0.81064,-0.38399 1.36531,-0.98133 1.664,-1.792 0.29864,-0.81066 0.44797,-1.89866 0.448,-3.264"
         id="path4006"
         style="line-height:100%;fill:#ffffff" />
      <path
         d="m 334.446,933.17414 -3.2,0 c -2.64535,3e-5 -4.60801,0.34136 -5.888,1.024 -1.23734,0.68269 -1.85601,1.96269 -1.856,3.84 l 0,21.824 -5.76,0 0,-30.976 5.44,0 0,5.056 c -1e-5,-1.4933 0.91732,-2.81597 2.752,-3.968 1.87732,-1.15197 3.77598,-1.72797 5.696,-1.728 l 2.816,0 0,4.928"
         id="path4008"
         style="line-height:100%;fill:#ffffff" />
      <path
         d="m 368.466,949.75014 c -3e-5,1.87734 -0.27737,3.49868 -0.832,4.864 -0.5547,1.36534 -1.2587,2.43201 -2.112,3.2 -0.8107,0.72534 -1.8987,1.30134 -3.264,1.728 -1.36536,0.42667 -2.64536,0.68267 -3.84,0.768 -1.19469,0.128 -2.64535,0.192 -4.352,0.192 -1.70668,0 -3.37068,-0.21333 -4.992,-0.64 -1.62135,-0.42666 -2.64534,-1.088 -3.072,-1.984 l 0,15.296 -5.76,0 0,-44.288 5.696,0 0,3.328 0.064,0 c 0.46932,-2.6453 3.98932,-3.96797 10.56,-3.968 4.13864,3e-5 7.14664,0.8747 9.024,2.624 1.91997,1.7067 2.87997,3.75469 2.88,6.144 l 0,12.736 m -5.888,0.704 0,-11.392 c -3e-5,-2.85864 -0.61869,-4.67197 -1.856,-5.44 -1.23736,-0.81064 -3.43469,-1.21597 -6.592,-1.216 -3.15735,3e-5 -5.31201,0.38403 -6.464,1.152 -1.10934,0.76803 -1.66401,2.60269 -1.664,5.504 l 0,11.392 c -1e-5,2.60268 0.57599,4.28801 1.728,5.056 1.19465,0.72534 3.34932,1.08801 6.464,1.088 3.15731,1e-5 5.33331,-0.36266 6.528,-1.088 1.23731,-0.76799 1.85597,-2.45332 1.856,-5.056"
         id="path4010"
         style="line-height:100%;fill:#ffffff" />
      <path
         d="m 404.634,939.31814 0,10.752 c -3e-5,1.92001 -0.2347,3.54134 -0.704,4.864 -0.46936,1.32267 -1.0667,2.34667 -1.792,3.072 -0.72536,0.72534 -1.77069,1.28 -3.136,1.664 -1.32269,0.384 -2.60269,0.61867 -3.84,0.704 -1.19469,0.0853 -2.79469,0.128 -4.8,0.128 -2.56002,0 -4.56535,-0.0853 -6.016,-0.256 -1.40801,-0.17066 -2.83734,-0.576 -4.288,-1.216 -1.40801,-0.68266 -2.43201,-1.74933 -3.072,-3.2 -0.59734,-1.45066 -0.896,-3.37066 -0.896,-5.76 l 0,-10.752 c 0,-2.04797 0.23466,-3.77597 0.704,-5.184 0.51199,-1.40797 1.10933,-2.49597 1.792,-3.264 0.72533,-0.76797 1.77066,-1.34397 3.136,-1.728 1.36532,-0.42663 2.62399,-0.68263 3.776,-0.768 1.19465,-0.0853 2.81598,-0.12797 4.864,-0.128 2.04798,3e-5 3.64798,0.0427 4.8,0.128 1.19464,0.0854 2.47464,0.34137 3.84,0.768 1.36531,0.38403 2.3893,0.96003 3.072,1.728 0.7253,0.76803 1.32264,1.85603 1.792,3.264 0.51197,1.40803 0.76797,3.13603 0.768,5.184 m -5.888,11.584 0,-12.544 c -3e-5,-2.85864 -0.57603,-4.6293 -1.728,-5.312 -1.15202,-0.68264 -3.37069,-1.02397 -6.656,-1.024 -3.28535,3e-5 -5.50401,0.34136 -6.656,1.024 -1.15201,0.6827 -1.72801,2.45336 -1.728,5.312 l 0,12.544 c -1e-5,1.36534 0.14932,2.45334 0.448,3.264 0.29866,0.81067 0.85332,1.40801 1.664,1.792 0.81065,0.34134 1.64265,0.55467 2.496,0.64 0.85332,0.0853 2.11198,0.12801 3.776,0.128 1.66398,10e-6 2.92265,-0.0427 3.776,-0.128 0.85331,-0.0853 1.68531,-0.29866 2.496,-0.64 0.81064,-0.38399 1.36531,-0.98133 1.664,-1.792 0.29864,-0.81066 0.44797,-1.89866 0.448,-3.264"
         id="path4012"
         style="line-height:100%;fill:#ffffff" />
      <path
         d="m 436.593,948.98214 0,2.688 c -3e-5,3.32801 -1.17336,5.63201 -3.52,6.912 -2.30402,1.28 -5.63202,1.92 -9.984,1.92 -3.32801,0 -6.86934,-0.256 -10.624,-0.768 l 0,-4.416 c 5.11999,0.81067 8.70399,1.21601 10.752,1.216 2.55998,10e-6 4.47998,-0.23466 5.76,-0.704 1.27998,-0.51199 1.91998,-1.53599 1.92,-3.072 l 0,-3.136 c -2e-5,-1.32265 -0.44802,-2.26132 -1.344,-2.816 -0.89602,-0.55465 -2.34669,-0.83198 -4.352,-0.832 l -3.52,0 c -3.24268,2e-5 -5.69601,-0.66132 -7.36,-1.984 -1.664,-1.36531 -2.496,-3.22131 -2.496,-5.568 l 0,-2.88 c 0,-4.86397 4.60799,-7.29597 13.824,-7.296 1.02398,3e-5 4.15998,0.1707 9.408,0.512 l 0,4.16 c -3.66936,-0.5973 -6.89069,-0.89597 -9.664,-0.896 -3.07201,3e-5 -5.16268,0.2987 -6.272,0.896 -1.06668,0.59736 -1.60001,1.60003 -1.6,3.008 l 0,2.624 c -1e-5,2.09069 1.89866,3.13602 5.696,3.136 l 3.584,0 c 6.52798,2e-5 9.79197,2.43202 9.792,7.296"
         id="path4014"
         style="line-height:100%;fill:#ffffff" />
      <path
         d="m 463.948,959.99014 c -2.04802,0.34134 -4.20269,0.512 -6.464,0.512 -3.88268,0 -6.59201,-0.66133 -8.128,-1.984 -1.53601,-1.36533 -2.30401,-3.92533 -2.304,-7.68 l 0,-18.176 -6.912,0 0,-3.776 6.912,0 0,-9.6 5.824,0 0,9.6 11.072,0 0,3.776 -11.072,0 0,18.496 c -10e-6,2.21868 0.42665,3.71201 1.28,4.48 0.85332,0.72534 2.58132,1.08801 5.184,1.088 0.68265,10e-6 2.21864,-0.17066 4.608,-0.512 l 0,3.776"
         id="path4016"
         style="line-height:100%;fill:#ffffff" />
      <path
         d="m 281.396,1023.8622 -7.488,0 -22.592,-34.88006 0,34.88006 -5.44,0 0,-41.53606 7.488,0 22.592,34.30406 0,-34.30406 5.44,0 0,41.53606"
         id="path4018"
         style="line-height:100%;fill:#ffffff" />
      <path
         d="m 319.134,1003.3182 0,10.752 c -3e-5,1.92 -0.2347,3.5413 -0.704,4.864 -0.46936,1.3227 -1.0667,2.3467 -1.792,3.072 -0.72536,0.7253 -1.77069,1.28 -3.136,1.664 -1.32269,0.384 -2.60269,0.6186 -3.84,0.704 -1.19469,0.085 -2.79469,0.128 -4.8,0.128 -2.56002,0 -4.56535,-0.085 -6.016,-0.256 -1.40801,-0.1707 -2.83734,-0.576 -4.288,-1.216 -1.40801,-0.6827 -2.43201,-1.7493 -3.072,-3.2 -0.59734,-1.4507 -0.896,-3.3707 -0.896,-5.76 l 0,-10.752 c 0,-2.048 0.23466,-3.77602 0.704,-5.18404 0.51199,-1.40799 1.10933,-2.49599 1.792,-3.26402 0.72533,-0.76797 1.77066,-1.34397 3.136,-1.728 1.36532,-0.42663 2.62399,-0.68263 3.776,-0.768 1.19465,-0.0853 2.81598,-0.12797 4.864,-0.128 2.04798,3e-5 3.64798,0.0427 4.8,0.128 1.19464,0.0854 2.47464,0.34137 3.84,0.768 1.36531,0.38403 2.3893,0.96003 3.072,1.728 0.7253,0.76803 1.32264,1.85603 1.792,3.26402 0.51197,1.40802 0.76797,3.13604 0.768,5.18404 m -5.888,11.584 0,-12.544 c -3e-5,-2.85872 -0.57603,-4.62936 -1.728,-5.31206 -1.15202,-0.68264 -3.37069,-1.02397 -6.656,-1.024 -3.28535,3e-5 -5.50401,0.34136 -6.656,1.024 -1.15201,0.6827 -1.72801,2.45334 -1.728,5.31206 l 0,12.544 c -1e-5,1.3653 0.14932,2.4533 0.448,3.264 0.29866,0.8107 0.85332,1.408 1.664,1.792 0.81065,0.3413 1.64265,0.5547 2.496,0.64 0.85332,0.085 2.11198,0.128 3.776,0.128 1.66398,0 2.92265,-0.043 3.776,-0.128 0.85331,-0.085 1.68531,-0.2987 2.496,-0.64 0.81064,-0.384 1.36531,-0.9813 1.664,-1.792 0.29864,-0.8107 0.44797,-1.8987 0.448,-3.264"
         id="path4020"
         style="line-height:100%;fill:#ffffff" />
      <path
         d="m 344.821,997.17414 -3.2,0 c -2.64535,3e-5 -4.60801,0.34136 -5.888,1.02402 -1.23734,0.6827 -1.85601,1.96274 -1.856,3.84004 l 0,21.824 -5.76,0 0,-30.97606 5.44,0 0,5.056 c -1e-5,-1.4933 0.91732,-2.81597 2.752,-3.968 1.87732,-1.15197 3.77598,-1.72797 5.696,-1.728 l 2.816,0 0,4.928"
         id="path4022"
         style="line-height:100%;fill:#ffffff" />
      <path
         d="m 377.049,992.88614 0,33.92006 c -3e-5,4.3946 -1.23736,7.3386 -3.712,8.832 -2.43203,1.536 -6.10135,2.304 -11.008,2.304 -4.39468,0 -7.95734,-0.2347 -10.688,-0.704 l 0,-4.096 c 4.90666,0.5973 8.63999,0.896 11.2,0.896 2.94398,0 5.07731,-0.4694 6.4,-1.408 1.36531,-0.9387 2.04797,-2.496 2.048,-4.672 l 0,-7.424 c -0.0854,1.4507 -1.08802,2.4747 -3.008,3.072 -1.87735,0.5973 -4.03202,0.896 -6.464,0.896 -4.77868,0 -8.04267,-0.704 -9.792,-2.112 -1.70667,-1.408 -2.56,-3.84 -2.56,-7.296 l 0,-12.608 c 0,-3.66934 0.98133,-6.29336 2.944,-7.87206 2.00532,-1.57863 5.26932,-2.36797 9.792,-2.368 5.37598,3e-5 8.53331,1.21603 9.472,3.648 l 0,-3.008 5.376,0 m -5.76,22.59206 0,-14.016 c -3e-5,-2.00532 -0.55469,-3.37074 -1.664,-4.09606 -1.06669,-0.76797 -3.30669,-1.15197 -6.72,-1.152 -3.20001,3e-5 -5.29068,0.3627 -6.272,1.088 -0.98134,0.72532 -1.47201,2.11204 -1.472,4.16006 l 0,14.016 c -10e-6,2.1333 0.51199,3.5413 1.536,4.224 1.06665,0.64 3.17865,0.96 6.336,0.96 2.90131,0 4.99198,-0.3413 6.272,-1.024 1.32264,-0.7253 1.98397,-2.112 1.984,-4.16"
         id="path4024"
         style="line-height:100%;fill:#ffffff" />
      <path
         d="m 412.464,1009.6542 -20.8,0 0,4.672 c -10e-6,2.176 0.76799,3.7333 2.304,4.672 1.53599,0.896 3.81865,1.344 6.848,1.344 2.94398,0 6.42131,-0.512 10.432,-1.536 l 0,4.416 c -3.84003,0.8533 -7.57336,1.28 -11.2,1.28 -9.47201,0 -14.208,-3.1573 -14.208,-9.472 l 0,-12.224 c 0,-3.79732 1.088,-6.5067 3.264,-8.12806 2.17599,-1.6213 5.65332,-2.43197 10.432,-2.432 4.47998,3e-5 7.74397,0.78937 9.792,2.368 2.09064,1.53603 3.13597,4.26672 3.136,8.19206 l 0,6.848 m -5.76,-3.776 0,-4.864 c -2e-5,-1.87732 -0.57602,-3.15736 -1.728,-3.84006 -1.15202,-0.7253 -3.07202,-1.08797 -5.76,-1.088 -2.56001,3e-5 -4.45868,0.34136 -5.696,1.024 -1.23734,0.6827 -1.85601,1.98404 -1.856,3.90406 l 0,4.864 15.04,0"
         id="path4026"
         style="line-height:100%;fill:#ffffff" />
    </g>
  </g>
</svg>
