<?xml version="1.0" encoding="UTF-8" standalone="no"?>
<!-- Created with Inkscape (http://www.inkscape.org/) -->

<svg
    width="220"
    height="220"
    id="efnlogo"
    version="0.5">
<circle cx="110" cy="110" r="99" stroke-width="3" fill="orange" color="black" stroke="black" />

<line x1="110" y1="10" y2="60" x2="196.60254" stroke="black" stroke-width="2"/>
<line x1="110" y1="10" y2="196.60254" x2="160" stroke="black" stroke-width="2" />
<line x1="110" y1="10" y2="160" x2="25.60254" stroke="black" stroke-width="2" />

<line x1="160" y1="25.6025" y2="110" x2="10" stroke="black"  stroke-width="2"/>
<line x1="160" y1="25.6025" x2="110" y2="210" stroke="black"  stroke-width="2"/>

<line y1="60" x1="196.60254" x2="60" y2="196.60245" stroke="black"  stroke-width="2"/>

<line x1="210" y1="110" y2="160" x2="25.60254" stroke="black"  stroke-width="2"/>
<line x1="210" y1="110" x2="60" y2="25.60254" stroke="black"  stroke-width="2"/>

<line y1="160" x1="196.60254" y2="60" x2="25.60245" stroke="black"  stroke-width="2"/>

<line x1="110" y1="210"  y2="60" x2="25.60254" stroke="black"  stroke-width="2"/>

<line x1="60" y1="196.60254" x2="60" y2="25.60245" stroke="black"  stroke-width="2"/>


<circle cx="110"       cy="10" r="5" fill="white" stroke="black" stroke-width="3"/>
<circle cx="160"       cy="25.60254" r="5" fill="white" stroke="black" stroke-width="3"/>
<circle cx="196.60254" cy="60" r="5" fill="white" stroke="black" stroke-width="3"/>
<circle cx="210"       cy="110" r="5" fill="white" stroke="black" stroke-width="3"/>
<circle cx="196.60254" cy="160" r="5" fill="white" stroke="black" stroke-width="3"/>
<circle cx="160"       cy="196.60254" r="5" fill="white" stroke="black" stroke-width="3"/>
<circle cx="110"       cy="210" r="5" fill="white" stroke="black" stroke-width="3"/>
<circle cx="60"        cy="196.60254" r="5" fill="white" stroke="black" stroke-width="3"/>
<circle cx="25.60254"  cy="160" r="5" fill="white" stroke="black" stroke-width="3"/>
<circle cx="10"        cy="110" r="5" fill="white" stroke="black" stroke-width="3"/>
<circle cx="25.60254"  cy="60" r="5" fill="white" stroke="black" stroke-width="3"/>
<circle cx="60"        cy="25.60254" r="5" fill="white" stroke="black" stroke-width="3" />



</svg>
