<?xml version="1.0" encoding="UTF-8" standalone="no"?>
<!-- Created with emacs -->

<svg
    width="220"
    height="220"
    xmlns:svg="http://www.w3.org/2000/svg"
    xmlns="http://www.w3.org/2000/svg"
   
>
<circle cx="110" cy="110" r="99" stroke-width="3" fill="orange" color="black" stroke="black" />

<line x1="110" y1="10" y2="60" x2="196.60254" stroke="black" stroke-width="2"/>
<line x1="110" y1="10" y2="196.60254" x2="160" stroke="black" stroke-width="2" />
<line x1="110" y1="10" y2="160" x2="25.60254" stroke="black" stroke-width="2" />

<line x1="160" y1="25.6025" y2="110" x2="10" stroke="black"  stroke-width="2"/>
<line x1="160" y1="25.6025" x2="110" y2="210" stroke="black"  stroke-width="2"/>

<line y1="60" x1="196.60254" x2="60" y2="196.60245" stroke="black"  stroke-width="2"/>

<line x1="210" y1="110" y2="160" x2="25.60254" stroke="black"  stroke-width="2"/>
<line x1="210" y1="110" x2="60" y2="25.60254" stroke="black"  stroke-width="2"/>

<line y1="160" x1="196.60254" y2="60" x2="25.60245" stroke="black"  stroke-width="2"/>

<line x1="110" y1="210"  y2="60" x2="25.60254" stroke="black"  stroke-width="2"/>

<line x1="60" y1="196.60254" x2="60" y2="25.60245" stroke="black"  stroke-width="2"/>


<circle cx="110"       cy="10" r="5" fill="white" stroke="black" stroke-width="3"/>
<circle cx="160"       cy="25.60254" r="5" fill="white" stroke="black" stroke-width="3"/>
<circle cx="196.60254" cy="60" r="5" fill="white" stroke="black" stroke-width="3"/>
<circle cx="210"       cy="110" r="5" fill="white" stroke="black" stroke-width="3"/>
<circle cx="196.60254" cy="160" r="5" fill="white" stroke="black" stroke-width="3"/>
<circle cx="160"       cy="196.60254" r="5" fill="white" stroke="black" stroke-width="3"/>
<circle cx="110"       cy="210" r="5" fill="white" stroke="black" stroke-width="3"/>
<circle cx="60"        cy="196.60254" r="5" fill="white" stroke="black" stroke-width="3"/>
<circle cx="25.60254"  cy="160" r="5" fill="white" stroke="black" stroke-width="3"/>
<circle cx="10"        cy="110" r="5" fill="white" stroke="black" stroke-width="3"/>
<circle cx="25.60254"  cy="60" r="5" fill="white" stroke="black" stroke-width="3"/>
<circle cx="60"        cy="25.60254" r="5" fill="white" stroke="black" stroke-width="3" />

<polygon points="30,77 81,77 81,87 44,87 44,104 78,104 78,115 44,115 44,134 86,134 86,77 150,77 179,121 179,77 191,77 191,144 179,144 150,99 150,144 137,144 137,87 101,87 101,104 128,104 128,115 101,115 101,145 30,145 " fill="black" stroke="white" stroke-width="2" />

</svg>
