<?xml version="1.0" encoding="UTF-8" standalone="no"?>
<!-- Created with Inkscape (http://www.inkscape.org/) -->

<svg
   xmlns:dc="http://purl.org/dc/elements/1.1/"
   xmlns:cc="http://creativecommons.org/ns#"
   xmlns:rdf="http://www.w3.org/1999/02/22-rdf-syntax-ns#"
   xmlns:svg="http://www.w3.org/2000/svg"
   xmlns="http://www.w3.org/2000/svg"
   xmlns:sodipodi="http://sodipodi.sourceforge.net/DTD/sodipodi-0.dtd"
   xmlns:inkscape="http://www.inkscape.org/namespaces/inkscape"
   version="1.1"
   width="193.66408"
   height="63.509113"
   id="svg4117"
   inkscape:version="0.48.2 r9819"
   sodipodi:docname="efnlogo.svg"
   inkscape:export-filename="/Users/bfg/Dropbox/EFN/logo/efnlogo.png"
   inkscape:export-xdpi="90"
   inkscape:export-ydpi="90">
  <sodipodi:namedview
     pagecolor="#ffffff"
     bordercolor="#666666"
     borderopacity="1"
     objecttolerance="10"
     gridtolerance="10"
     guidetolerance="10"
     inkscape:pageopacity="0"
     inkscape:pageshadow="2"
     inkscape:window-width="640"
     inkscape:window-height="480"
     id="namedview38"
     showgrid="false"
     fit-margin-top="0"
     fit-margin-left="0"
     fit-margin-right="0"
     fit-margin-bottom="0"
     inkscape:zoom="1.814433"
     inkscape:cx="96.75"
     inkscape:cy="31.999997"
     inkscape:window-x="0"
     inkscape:window-y="0"
     inkscape:window-maximized="0"
     inkscape:current-layer="svg4117" />
  <defs
     id="defs4119">
    <filter
       x="-0.029158877"
       y="-0.1282288"
       width="1.0583178"
       height="1.2564576"
       color-interpolation-filters="sRGB"
       id="filter3788">
      <feGaussianBlur
         id="feGaussianBlur3790"
         stdDeviation="2.2172896" />
    </filter>
  </defs>
  <metadata
     id="metadata4122">
    <rdf:RDF>
      <cc:Work
         rdf:about="">
        <dc:format>image/svg+xml</dc:format>
        <dc:type
           rdf:resource="http://purl.org/dc/dcmitype/StillImage" />
        <dc:title></dc:title>
      </cc:Work>
    </rdf:RDF>
  </metadata>
  <g
     transform="translate(-9.9179719,-976.85309)"
     id="layer1">
    <path
       d="m 442.5,977.61218 a 91.25,20.75 0 1 1 -182.5,0 91.25,20.75 0 1 1 182.5,0 z"
       transform="matrix(1.0026979,0,0,1.0359606,-245.44763,-8.905574)"
       id="path3770"
       style="fill:#000000;fill-opacity:0.49803922;stroke:none;filter:url(#filter3788)"
       inkscape:connector-curvature="0" />
    <path
       d="m 442.5,977.61218 a 91.25,20.75 0 1 1 -182.5,0 91.25,20.75 0 1 1 182.5,0 z"
       transform="matrix(1.0026979,0,0,1.0359606,-249.44763,-12.905574)"
       id="path3760"
       style="fill:#ff7f00;fill-opacity:1;stroke:#202020;stroke-width:0.98865885;stroke-linecap:round;stroke-linejoin:round;stroke-miterlimit:4;stroke-opacity:1;stroke-dasharray:none"
       inkscape:connector-curvature="0" />
    <g
       transform="translate(-463.75,22)"
       id="text3762"
       style="font-size:24px;font-style:normal;font-variant:normal;font-weight:normal;font-stretch:normal;line-height:125%;letter-spacing:0px;word-spacing:0px;fill:#000000;fill-opacity:1;stroke:none;font-family:Courier New;-inkscape-font-specification:Courier New">
      <path
         d="m 530.46875,979.00281 0,7.05469 12.25781,0 0,-2.60157 c -2e-5,-1.15624 0.21873,-1.97655 0.65625,-2.46093 0.4531,-0.49999 1.03904,-0.74999 1.75781,-0.75 0.70311,10e-6 1.27342,0.25001 1.71094,0.75 0.4531,0.48438 0.67966,1.30469 0.67969,2.46093 l 0,7.40625 -22.61719,0 c -1.15625,0 -1.98437,-0.21875 -2.48437,-0.65625 -0.48438,-0.45312 -0.72657,-1.03906 -0.72657,-1.75781 0,-0.70312 0.25,-1.27343 0.75,-1.71094 0.5,-0.45312 1.32031,-0.67968 2.46094,-0.67968 l 0.75,0 0,-18.79688 -0.75,0 c -1.15625,2e-5 -1.98437,-0.21873 -2.48437,-0.65625 -0.48438,-0.4531 -0.72657,-1.03904 -0.72657,-1.75781 0,-0.71873 0.24219,-1.29685 0.72657,-1.73438 0.5,-0.45309 1.32812,-0.67966 2.48437,-0.67968 l 21.5625,0.0234 0,7.3125 c -2e-5,1.14065 -0.21877,1.96096 -0.65625,2.46094 -0.43752,0.48439 -1.01565,0.72658 -1.73437,0.72656 -0.71877,2e-5 -1.30471,-0.24217 -1.75782,-0.72656 -0.43752,-0.48436 -0.65627,-1.30467 -0.65625,-2.46094 l 0,-2.50781 -11.20312,0 0,6.9375 4.21875,0 c -10e-6,-1.24998 0.11717,-2.05467 0.35156,-2.41406 0.48436,-0.76561 1.17186,-1.14842 2.0625,-1.14844 0.70311,2e-5 1.27342,0.25002 1.71094,0.75 0.45311,0.48439 0.67967,1.30471 0.67969,2.46094 l 0,5.53125 c -2e-5,1.04688 -0.12502,1.75001 -0.375,2.10937 -0.50002,0.73439 -1.17189,1.10157 -2.01563,1.10157 -0.89064,0 -1.57814,-0.38281 -2.0625,-1.14844 -0.23439,-0.35937 -0.35157,-1.17187 -0.35156,-2.4375 l -4.21875,0"
         id="path3793"
         style="font-size:48px;font-weight:bold;font-family:Courier New;-inkscape-font-specification:Courier New Bold"
         inkscape:connector-curvature="0" />
      <path
         d="m 560.89062,979.02625 0,7.03125 4.92188,0 c 1.15623,0 1.97654,0.22656 2.46094,0.67968 0.49998,0.43751 0.74998,1.01563 0.75,1.73438 -2e-5,0.70312 -0.25002,1.28125 -0.75,1.73437 -0.4844,0.4375 -1.30471,0.65625 -2.46094,0.65625 l -10.47656,0 c -1.15626,0 -1.98438,-0.21875 -2.48438,-0.65625 -0.48438,-0.45312 -0.72656,-1.03906 -0.72656,-1.75781 0,-0.70312 0.25,-1.27343 0.75,-1.71094 0.5,-0.45312 1.32031,-0.67968 2.46094,-0.67968 l 0.75,0 0,-18.79688 -0.75,0 c -1.15626,2e-5 -1.98438,-0.21873 -2.48438,-0.65625 -0.48438,-0.4531 -0.72656,-1.03904 -0.72656,-1.75781 0,-0.71873 0.24218,-1.29685 0.72656,-1.73438 0.5,-0.45309 1.32812,-0.67966 2.48438,-0.67968 l 22.61718,0.0234 0,7.33594 c -2e-5,1.14065 -0.22659,1.96096 -0.67968,2.46094 -0.43753,0.48439 -1.01565,0.72658 -1.73438,0.72656 -0.70315,2e-5 -1.28127,-0.24217 -1.73437,-0.72656 -0.43753,-0.48436 -0.65628,-1.30467 -0.65625,-2.46094 l 0,-2.53125 -12.25782,0 0,6.96094 4.21875,0 c -10e-6,-1.24998 0.11718,-2.05467 0.35157,-2.41406 0.48436,-0.76561 1.17186,-1.14842 2.0625,-1.14844 0.7031,2e-5 1.27342,0.25002 1.71093,0.75 0.45311,0.48439 0.67967,1.3047 0.67969,2.46094 l 0,5.53125 c -2e-5,1.15626 -0.22658,1.98438 -0.67969,2.48437 -0.43751,0.48438 -1.01564,0.72657 -1.73437,0.72656 -0.87502,10e-6 -1.5547,-0.3828 -2.03906,-1.14843 -0.23439,-0.35937 -0.35158,-1.17187 -0.35157,-2.4375 l -4.21875,0"
         id="path3795"
         style="font-size:48px;font-weight:bold;font-family:Courier New;-inkscape-font-specification:Courier New Bold"
         inkscape:connector-curvature="0" />
      <path
         d="m 588.95312,971.52625 0,14.53125 1.73438,0 c 1.15624,0 1.97655,0.22656 2.46094,0.67968 0.49998,0.43751 0.74998,1.01563 0.75,1.73438 -2e-5,0.70312 -0.25002,1.28125 -0.75,1.73437 -0.48439,0.4375 -1.3047,0.65625 -2.46094,0.65625 l -6.30469,0 c -1.15625,0 -1.98437,-0.21875 -2.48437,-0.65625 -0.48438,-0.45312 -0.72657,-1.03906 -0.72657,-1.75781 0,-0.6875 0.24219,-1.25781 0.72657,-1.71094 0.48437,-0.45312 1.23437,-0.67968 2.25,-0.67968 l 0,-18.79688 -0.75,0 c -1.15625,2e-5 -1.98438,-0.21873 -2.48438,-0.65625 -0.48437,-0.4531 -0.72656,-1.03904 -0.72656,-1.75781 0,-0.71873 0.24219,-1.29685 0.72656,-1.73438 0.5,-0.45309 1.32813,-0.67966 2.48438,-0.67968 l 5.55468,0.0234 12.28125,19.26563 0,-14.46094 -1.73437,0 c -1.15627,2e-5 -1.98439,-0.21873 -2.48438,-0.65625 -0.48439,-0.4531 -0.72657,-1.03904 -0.72656,-1.75781 -10e-6,-0.71873 0.24217,-1.29685 0.72656,-1.73438 0.49999,-0.45309 1.32811,-0.67966 2.48438,-0.67968 l 6.30469,0.0234 c 1.15622,3e-5 1.97653,0.21878 2.46093,0.65625 0.49998,0.43753 0.74998,1.01565 0.75,1.73438 -2e-5,0.70315 -0.24221,1.28127 -0.72656,1.73437 -0.4844,0.45315 -1.22659,0.67971 -2.22656,0.67969 l 0,23.60156 -4.75781,0 -12.35157,-19.33593"
         id="path3797"
         style="font-size:48px;font-weight:bold;font-family:Courier New;-inkscape-font-specification:Courier New Bold"
         inkscape:connector-curvature="0" />
    </g>
    <g
       transform="translate(-463.75,22)"
       id="text3766"
       style="font-size:24px;font-style:normal;font-variant:normal;font-weight:normal;font-stretch:normal;line-height:125%;letter-spacing:0px;word-spacing:0px;fill:#000000;fill-opacity:1;stroke:none;font-family:Courier New;-inkscape-font-specification:Courier New">
      <path
         d="m 484.22852,1013.8036 -4.92774,0 c 0.125,0.3125 0.3457,0.5644 0.66211,0.7558 0.32031,0.1915 0.75195,0.2872 1.29492,0.2872 0.44531,0 1.03711,-0.096 1.77539,-0.2872 0.30468,-0.078 0.51562,-0.1171 0.63282,-0.1171 0.16015,0 0.29491,0.057 0.40429,0.1699 0.10937,0.1133 0.16406,0.2558 0.16406,0.4277 0,0.1563 -0.0586,0.2891 -0.17578,0.3985 -0.15625,0.1445 -0.53711,0.2832 -1.14257,0.416 -0.60548,0.1289 -1.18751,0.1933 -1.7461,0.1933 -0.96094,0 -1.73047,-0.2715 -2.30859,-0.8144 -0.57422,-0.543 -0.86133,-1.211 -0.86133,-2.0039 0,-0.8438 0.31055,-1.5293 0.93164,-2.0567 0.625,-0.5312 1.34375,-0.7968 2.15625,-0.7968 0.48828,0 0.93554,0.086 1.3418,0.2578 0.41015,0.1718 0.71484,0.3574 0.91406,0.5566 0.28124,0.2891 0.51367,0.6465 0.69727,1.0723 0.12499,0.2969 0.18749,0.6406 0.1875,1.0312 l 0,0.5098 m -1.33008,-1.2012 c -0.1836,-0.3437 -0.42384,-0.5996 -0.72071,-0.7676 -0.29687,-0.1718 -0.65039,-0.2578 -1.06054,-0.2578 -0.40626,0 -0.75782,0.086 -1.05469,0.2578 -0.29688,0.168 -0.53906,0.4239 -0.72656,0.7676 l 3.5625,0"
         id="path3847"
         style="font-size:12px;font-weight:bold;-inkscape-font-specification:Courier New Bold"
         inkscape:connector-curvature="0" />
      <path
         d="m 489.00977,1008.2548 0,6.3984 1.4414,0 c 0.28906,0 0.49414,0.057 0.61524,0.1699 0.12499,0.1094 0.18749,0.2539 0.1875,0.4336 -1e-5,0.1758 -0.0625,0.3203 -0.1875,0.4336 -0.1211,0.1094 -0.32618,0.1641 -0.61524,0.1641 l -4.08398,0 c -0.28907,0 -0.4961,-0.055 -0.6211,-0.1641 -0.12109,-0.1133 -0.18164,-0.2598 -0.18164,-0.4394 0,-0.1758 0.0605,-0.3184 0.18164,-0.4278 0.125,-0.1133 0.33203,-0.1699 0.6211,-0.1699 l 1.4414,0 0,-5.1973 -0.96679,0 c -0.28516,0 -0.49024,-0.055 -0.61524,-0.164 -0.125,-0.1133 -0.1875,-0.2598 -0.1875,-0.4395 0,-0.1758 0.0605,-0.3183 0.18164,-0.4277 0.125,-0.1133 0.33203,-0.1699 0.6211,-0.1699 l 2.16797,0"
         id="path3849"
         style="font-size:12px;font-weight:bold;-inkscape-font-specification:Courier New Bold"
         inkscape:connector-curvature="0" />
      <path
         d="m 498.61914,1013.8036 -4.92773,0 c 0.12499,0.3125 0.3457,0.5644 0.66211,0.7558 0.32031,0.1915 0.75195,0.2872 1.29492,0.2872 0.44531,0 1.0371,-0.096 1.77539,-0.2872 0.30468,-0.078 0.51562,-0.1171 0.63281,-0.1171 0.16015,0 0.29492,0.057 0.4043,0.1699 0.10937,0.1133 0.16405,0.2558 0.16406,0.4277 -10e-6,0.1563 -0.0586,0.2891 -0.17578,0.3985 -0.15626,0.1445 -0.53712,0.2832 -1.14258,0.416 -0.60547,0.1289 -1.1875,0.1933 -1.74609,0.1933 -0.96094,0 -1.73047,-0.2715 -2.3086,-0.8144 -0.57422,-0.543 -0.86133,-1.211 -0.86133,-2.0039 0,-0.8438 0.31055,-1.5293 0.93165,-2.0567 0.62499,-0.5312 1.34374,-0.7968 2.15625,-0.7968 0.48827,0 0.93554,0.086 1.34179,0.2578 0.41015,0.1718 0.71484,0.3574 0.91406,0.5566 0.28125,0.2891 0.51367,0.6465 0.69727,1.0723 0.12499,0.2969 0.18749,0.6406 0.1875,1.0312 l 0,0.5098 m -1.33008,-1.2012 c -0.1836,-0.3437 -0.42383,-0.5996 -0.7207,-0.7676 -0.29688,-0.1718 -0.6504,-0.2578 -1.06055,-0.2578 -0.40625,0 -0.75781,0.086 -1.05469,0.2578 -0.29687,0.168 -0.53906,0.4239 -0.72656,0.7676 l 3.5625,0"
         id="path3851"
         style="font-size:12px;font-weight:bold;-inkscape-font-specification:Courier New Bold"
         inkscape:connector-curvature="0" />
      <path
         d="m 501.8125,1013.8563 0,1.9981 -1.40625,0 c -0.28906,0 -0.49609,-0.055 -0.62109,-0.1641 -0.1211,-0.1133 -0.18164,-0.2598 -0.18164,-0.4394 0,-0.1758 0.0625,-0.3184 0.1875,-0.4278 0.12499,-0.1133 0.33007,-0.1699 0.61523,-0.1699 l 0.20508,0 0,-5.1973 -0.20508,0 c -0.28906,0 -0.49609,-0.055 -0.62109,-0.164 -0.1211,-0.1133 -0.18164,-0.2598 -0.18164,-0.4395 0,-0.1758 0.0605,-0.3183 0.18164,-0.4277 0.125,-0.1133 0.33203,-0.1699 0.62109,-0.1699 l 1.40625,0 0,4.0488 0.9375,-0.7559 c -0.0977,-0.1679 -0.14649,-0.3047 -0.14648,-0.4101 -10e-6,-0.1797 0.0605,-0.3242 0.18164,-0.4336 0.12109,-0.1133 0.32616,-0.1699 0.61523,-0.1699 l 1.37109,0 c 0.28906,0 0.49414,0.057 0.61524,0.1699 0.12499,0.1094 0.18749,0.2539 0.1875,0.4336 -1e-5,0.1758 -0.0625,0.3203 -0.1875,0.4336 -0.1211,0.1093 -0.32618,0.164 -0.61524,0.164 l -0.33398,0 -1.45898,1.1836 1.96289,1.7344 0.35156,0 c 0.28905,0 0.49413,0.057 0.61523,0.1699 0.125,0.1094 0.1875,0.2539 0.1875,0.4336 0,0.1758 -0.0625,0.3203 -0.1875,0.4336 -0.1211,0.1094 -0.32618,0.1641 -0.61523,0.1641 l -1.38281,0 c -0.28907,0 -0.4961,-0.055 -0.6211,-0.1641 -0.1211,-0.1133 -0.18164,-0.2598 -0.18164,-0.4394 0,-0.1524 0.0664,-0.3028 0.19922,-0.4512 l -1.27148,-1.125 -0.22266,0.1816"
         id="path3853"
         style="font-size:12px;font-weight:bold;-inkscape-font-specification:Courier New Bold"
         inkscape:connector-curvature="0" />
      <path
         d="m 509.69922,1011.7352 0,2.4082 c 0,0.2578 0.0527,0.4278 0.1582,0.5098 0.16406,0.1289 0.45703,0.1934 0.87891,0.1934 0.61327,0 1.17968,-0.1309 1.69922,-0.3926 0.19921,-0.1016 0.35546,-0.1524 0.46875,-0.1524 0.15624,0 0.29101,0.059 0.40429,0.1758 0.11718,0.1172 0.17578,0.2598 0.17578,0.4278 0,0.1562 -0.0625,0.291 -0.1875,0.4042 -0.19141,0.1836 -0.57031,0.3536 -1.13671,0.5098 -0.56251,0.1524 -1.03712,0.2285 -1.42383,0.2285 -0.7461,0 -1.30665,-0.1601 -1.68164,-0.4804 -0.3711,-0.3243 -0.55665,-0.7207 -0.55664,-1.1895 l 0,-2.6426 -0.4336,0 c -0.28906,0 -0.49609,-0.055 -0.62109,-0.164 -0.1211,-0.1133 -0.18164,-0.2598 -0.18164,-0.4395 0,-0.1758 0.0605,-0.3183 0.18164,-0.4277 0.125,-0.1133 0.33203,-0.1699 0.62109,-0.1699 l 0.4336,0 0,-1.084 c -10e-6,-0.2891 0.0547,-0.4942 0.16406,-0.6153 0.11328,-0.125 0.25976,-0.1875 0.43945,-0.1875 0.17578,0 0.31836,0.062 0.42774,0.1875 0.11327,0.1211 0.16992,0.3262 0.16992,0.6153 l 0,1.084 2.2207,0 c 0.28906,0 0.49414,0.057 0.61524,0.1699 0.12499,0.1094 0.18749,0.2539 0.1875,0.4336 -10e-6,0.1758 -0.0625,0.3203 -0.1875,0.4336 -0.1211,0.1093 -0.32618,0.164 -0.61524,0.164 l -2.2207,0"
         id="path3855"
         style="font-size:12px;font-weight:bold;-inkscape-font-specification:Courier New Bold"
         inkscape:connector-curvature="0" />
      <path
         d="m 516.94141,1010.5341 0,0.75 c 0.5039,-0.3633 0.90038,-0.6055 1.18945,-0.7266 0.29296,-0.1211 0.5664,-0.1816 0.82031,-0.1816 0.39062,0 0.76953,0.1445 1.13672,0.4335 0.24999,0.1954 0.37499,0.3946 0.375,0.5977 -10e-6,0.1719 -0.0606,0.3184 -0.18164,0.4395 -0.11719,0.1171 -0.25977,0.1757 -0.42773,0.1757 -0.14845,0 -0.3047,-0.074 -0.46875,-0.2226 -0.16407,-0.1485 -0.31056,-0.2227 -0.43946,-0.2227 -0.16797,0 -0.41992,0.1055 -0.75586,0.3164 -0.33203,0.211 -0.74805,0.5274 -1.24804,0.9493 l 0,1.8105 1.71093,0 c 0.28906,0 0.49414,0.057 0.61524,0.1699 0.12499,0.1094 0.18749,0.2539 0.1875,0.4336 -10e-6,0.1758 -0.0625,0.3203 -0.1875,0.4336 -0.1211,0.1094 -0.32618,0.1641 -0.61524,0.1641 l -3.62695,0 c -0.28906,0 -0.49609,-0.055 -0.62109,-0.1641 -0.1211,-0.1133 -0.18164,-0.2598 -0.18164,-0.4394 0,-0.1758 0.0605,-0.3184 0.18164,-0.4278 0.125,-0.1133 0.33203,-0.1699 0.62109,-0.1699 l 0.71484,0 0,-2.918 -0.43359,0 c -0.28906,0 -0.49609,-0.055 -0.62109,-0.164 -0.1211,-0.1133 -0.18164,-0.2598 -0.18164,-0.4395 0,-0.1758 0.0605,-0.3183 0.18164,-0.4277 0.125,-0.1133 0.33203,-0.1699 0.62109,-0.1699 l 1.63477,0"
         id="path3857"
         style="font-size:12px;font-weight:bold;-inkscape-font-specification:Courier New Bold"
         inkscape:connector-curvature="0" />
      <path
         d="m 527.50586,1013.2938 c -10e-6,0.461 -0.12891,0.9082 -0.38672,1.3418 -0.25391,0.4297 -0.63477,0.7735 -1.14258,1.0313 -0.50391,0.2539 -1.03125,0.3808 -1.58203,0.3808 -0.54688,0 -1.07031,-0.125 -1.57031,-0.375 -0.5,-0.2539 -0.88086,-0.5976 -1.14258,-1.0312 -0.26172,-0.4336 -0.39258,-0.8867 -0.39258,-1.3594 0,-0.4805 0.13281,-0.9512 0.39844,-1.4121 0.26562,-0.4648 0.64648,-0.8301 1.14258,-1.0957 0.5,-0.2656 1.02148,-0.3984 1.56445,-0.3984 0.54687,0 1.07226,0.1367 1.57617,0.4101 0.50781,0.2695 0.89062,0.6348 1.14844,1.0957 0.25781,0.457 0.38671,0.9278 0.38672,1.4121 m -1.20117,0.01 c -1e-5,-0.3867 -0.13868,-0.7422 -0.41602,-1.0664 -0.37891,-0.4375 -0.87696,-0.6563 -1.49414,-0.6563 -0.54297,0 -0.9961,0.1739 -1.35937,0.5215 -0.36329,0.3477 -0.54493,0.75 -0.54493,1.207 0,0.375 0.1836,0.7266 0.55079,1.0547 0.36718,0.3242 0.81835,0.4864 1.35351,0.4864 0.53906,0 0.99218,-0.1622 1.35938,-0.4864 0.36718,-0.3281 0.55077,-0.6816 0.55078,-1.0605"
         id="path3859"
         style="font-size:12px;font-weight:bold;-inkscape-font-specification:Courier New Bold"
         inkscape:connector-curvature="0" />
      <path
         d="m 530.36523,1010.5341 0,0.4043 c 0.21875,-0.1875 0.45899,-0.3282 0.72071,-0.4219 0.26562,-0.094 0.55273,-0.1406 0.86133,-0.1406 0.71093,0 1.27343,0.2207 1.6875,0.6621 0.32811,0.3515 0.49218,0.8125 0.49218,1.3828 l 0,2.2324 c 0.2539,0 0.4414,0.057 0.5625,0.1699 0.12109,0.1094 0.18164,0.2539 0.18164,0.4336 0,0.1758 -0.0625,0.3203 -0.1875,0.4336 -0.1211,0.1094 -0.32617,0.1641 -0.61523,0.1641 l -1.08399,0 c -0.28906,0 -0.49609,-0.055 -0.62109,-0.1641 -0.1211,-0.1133 -0.18164,-0.2598 -0.18164,-0.4394 0,-0.1758 0.0605,-0.3184 0.18164,-0.4278 0.12109,-0.1133 0.30859,-0.1699 0.5625,-0.1699 l 0,-2.2676 c 0,-0.2617 -0.0703,-0.4531 -0.21094,-0.5742 -0.18359,-0.1562 -0.45898,-0.2344 -0.82617,-0.2344 -0.27735,0 -0.52149,0.055 -0.73242,0.1641 -0.20703,0.1055 -0.47071,0.332 -0.79102,0.6797 l 0,2.2324 c 0.3086,0 0.50781,0.029 0.59766,0.088 0.1914,0.1172 0.28711,0.2891 0.28711,0.5156 0,0.1758 -0.0625,0.3203 -0.1875,0.4336 -0.1211,0.1094 -0.32617,0.1641 -0.61523,0.1641 l -1.36524,0 c -0.28906,0 -0.49609,-0.055 -0.62109,-0.1641 -0.1211,-0.1133 -0.18164,-0.2598 -0.18164,-0.4394 0,-0.2188 0.0937,-0.3887 0.28125,-0.5098 0.0937,-0.059 0.29492,-0.088 0.60351,-0.088 l 0,-2.918 c -0.2539,0 -0.4414,-0.057 -0.5625,-0.1699 -0.12109,-0.1133 -0.18164,-0.2578 -0.18164,-0.4336 0,-0.1758 0.0605,-0.3183 0.18164,-0.4277 0.125,-0.1133 0.33203,-0.1699 0.6211,-0.1699 l 1.14257,0"
         id="path3861"
         style="font-size:12px;font-weight:bold;-inkscape-font-specification:Courier New Bold"
         inkscape:connector-curvature="0" />
      <path
         d="m 539.20703,1008.2548 0,1.2714 -1.42969,0 0,-1.2714 1.42969,0 m 0.16406,2.2793 0,4.1191 1.44141,0 c 0.28906,0 0.49413,0.057 0.61523,0.1699 0.125,0.1094 0.1875,0.2539 0.1875,0.4336 0,0.1758 -0.0625,0.3203 -0.1875,0.4336 -0.1211,0.1094 -0.32617,0.1641 -0.61523,0.1641 l -4.08398,0 c -0.28907,0 -0.4961,-0.055 -0.6211,-0.1641 -0.12109,-0.1133 -0.18164,-0.2598 -0.18164,-0.4394 0,-0.1758 0.0605,-0.3184 0.18164,-0.4278 0.125,-0.1133 0.33203,-0.1699 0.6211,-0.1699 l 1.4414,0 0,-2.918 -0.9668,0 c -0.28515,0 -0.49023,-0.055 -0.61523,-0.164 -0.125,-0.1133 -0.1875,-0.2598 -0.1875,-0.4395 0,-0.1758 0.0606,-0.3183 0.18164,-0.4277 0.125,-0.1133 0.33203,-0.1699 0.62109,-0.1699 l 2.16797,0"
         id="path3863"
         style="font-size:12px;font-weight:bold;-inkscape-font-specification:Courier New Bold"
         inkscape:connector-curvature="0" />
      <path
         d="m 547.26953,1011.9403 c -0.19532,-0.1211 -0.40039,-0.2109 -0.61523,-0.2695 -0.21485,-0.062 -0.43946,-0.094 -0.67383,-0.094 -0.46485,0 -0.83399,0.076 -1.10742,0.2285 -0.1211,0.066 -0.18165,0.1387 -0.18164,0.2168 -10e-6,0.09 0.082,0.1778 0.24609,0.2637 0.125,0.062 0.40429,0.1231 0.83789,0.1817 0.79687,0.1093 1.35156,0.2187 1.66406,0.3281 0.41015,0.1445 0.72656,0.3594 0.94922,0.6445 0.22265,0.2852 0.33398,0.5859 0.33399,0.9024 -10e-6,0.4296 -0.18946,0.789 -0.56836,1.0781 -0.54298,0.4179 -1.24805,0.6269 -2.11524,0.6269 -0.34766,0 -0.66992,-0.031 -0.96679,-0.094 -0.29298,-0.059 -0.56251,-0.1465 -0.8086,-0.2637 -0.0586,0.051 -0.12109,0.09 -0.1875,0.1172 -0.0664,0.027 -0.13477,0.041 -0.20508,0.041 -0.1875,0 -0.33789,-0.06 -0.45117,-0.1816 -0.10937,-0.125 -0.16406,-0.3321 -0.16406,-0.6211 l 0,-0.4043 c 0,-0.2891 0.0547,-0.4942 0.16406,-0.6153 0.11328,-0.125 0.25977,-0.1875 0.43945,-0.1875 0.14453,0 0.26563,0.041 0.36329,0.1231 0.0976,0.078 0.17382,0.2148 0.22851,0.4101 0.18359,0.1563 0.4043,0.2754 0.66211,0.3575 0.25781,0.078 0.55469,0.1172 0.89063,0.1172 0.55077,0 0.97851,-0.086 1.2832,-0.2579 0.14453,-0.086 0.21679,-0.1757 0.2168,-0.2695 -10e-6,-0.1562 -0.10352,-0.2851 -0.31055,-0.3867 -0.20704,-0.1016 -0.63477,-0.1875 -1.2832,-0.2578 -0.96485,-0.1016 -1.60938,-0.2969 -1.9336,-0.586 -0.32422,-0.2851 -0.48633,-0.6367 -0.48633,-1.0546 0,-0.4297 0.18164,-0.7871 0.54493,-1.0723 0.49218,-0.3906 1.13671,-0.5859 1.93359,-0.5859 0.27734,0 0.54296,0.027 0.79687,0.082 0.25781,0.051 0.50391,0.1309 0.73829,0.2402 0.0742,-0.055 0.14257,-0.096 0.20507,-0.123 0.0664,-0.027 0.12695,-0.041 0.18164,-0.041 0.16406,0 0.30078,0.062 0.41016,0.1875 0.10937,0.1211 0.16406,0.3261 0.16406,0.6152 l 0,0.293 c 0,0.2617 -0.0312,0.4394 -0.0937,0.5332 -0.125,0.1797 -0.29492,0.2695 -0.50976,0.2695 -0.14454,0 -0.27149,-0.045 -0.38086,-0.1348 -0.10938,-0.09 -0.17969,-0.209 -0.21094,-0.3574"
         id="path3865"
         style="font-size:12px;font-weight:bold;-inkscape-font-specification:Courier New Bold"
         inkscape:connector-curvature="0" />
      <path
         d="m 552.17969,1013.8563 0,1.9981 -1.40625,0 c -0.28907,0 -0.4961,-0.055 -0.6211,-0.1641 -0.12109,-0.1133 -0.18164,-0.2598 -0.18164,-0.4394 0,-0.1758 0.0625,-0.3184 0.1875,-0.4278 0.125,-0.1133 0.33008,-0.1699 0.61524,-0.1699 l 0.20508,0 0,-5.1973 -0.20508,0 c -0.28907,0 -0.4961,-0.055 -0.6211,-0.164 -0.12109,-0.1133 -0.18164,-0.2598 -0.18164,-0.4395 0,-0.1758 0.0606,-0.3183 0.18164,-0.4277 0.125,-0.1133 0.33203,-0.1699 0.6211,-0.1699 l 1.40625,0 0,4.0488 0.9375,-0.7559 c -0.0977,-0.1679 -0.14649,-0.3047 -0.14649,-0.4101 0,-0.1797 0.0606,-0.3242 0.18164,-0.4336 0.12109,-0.1133 0.32617,-0.1699 0.61524,-0.1699 l 1.37109,0 c 0.28906,0 0.49414,0.057 0.61524,0.1699 0.12499,0.1094 0.18749,0.2539 0.1875,0.4336 -10e-6,0.1758 -0.0625,0.3203 -0.1875,0.4336 -0.1211,0.1093 -0.32618,0.164 -0.61524,0.164 l -0.33398,0 -1.45899,1.1836 1.96289,1.7344 0.35157,0 c 0.28905,0 0.49413,0.057 0.61523,0.1699 0.12499,0.1094 0.18749,0.2539 0.1875,0.4336 -10e-6,0.1758 -0.0625,0.3203 -0.1875,0.4336 -0.1211,0.1094 -0.32618,0.1641 -0.61523,0.1641 l -1.38282,0 c -0.28906,0 -0.49609,-0.055 -0.62109,-0.1641 -0.1211,-0.1133 -0.18164,-0.2598 -0.18164,-0.4394 0,-0.1524 0.0664,-0.3028 0.19922,-0.4512 l -1.27149,-1.125 -0.22265,0.1816"
         id="path3867"
         style="font-size:12px;font-weight:bold;-inkscape-font-specification:Courier New Bold"
         inkscape:connector-curvature="0" />
      <path
         d="m 567.54883,1011.7352 0,2.918 1.71094,0 c 0.28905,0 0.49413,0.057 0.61523,0.1699 0.12499,0.1094 0.18749,0.2539 0.1875,0.4336 -10e-6,0.1758 -0.0625,0.3203 -0.1875,0.4336 -0.1211,0.1094 -0.32618,0.1641 -0.61523,0.1641 l -3.62696,0 c -0.28906,0 -0.49609,-0.055 -0.62109,-0.1641 -0.1211,-0.1133 -0.18164,-0.2598 -0.18164,-0.4394 0,-0.1758 0.0605,-0.3184 0.18164,-0.4278 0.125,-0.1133 0.33203,-0.1699 0.62109,-0.1699 l 0.71485,0 0,-2.918 -0.57422,0 c -0.28907,0 -0.4961,-0.055 -0.6211,-0.164 -0.12109,-0.1133 -0.18164,-0.2598 -0.18164,-0.4395 0,-0.1758 0.0606,-0.3183 0.18164,-0.4277 0.125,-0.1133 0.33203,-0.1699 0.6211,-0.1699 l 0.57422,0 0,-0.4571 c -10e-6,-0.5234 0.19531,-0.957 0.58593,-1.3008 0.39453,-0.3476 0.96484,-0.5214 1.71094,-0.5214 0.33203,0 0.71484,0.031 1.14844,0.094 0.43749,0.059 0.71679,0.1426 0.83789,0.252 0.12499,0.1093 0.18749,0.25 0.1875,0.4218 -10e-6,0.1836 -0.0547,0.334 -0.16406,0.4512 -0.10938,0.1133 -0.24415,0.1699 -0.4043,0.1699 -0.0742,0 -0.18555,-0.014 -0.33398,-0.041 -0.4961,-0.098 -0.93556,-0.1465 -1.31836,-0.1465 -0.39845,0 -0.67384,0.061 -0.82618,0.1817 -0.14844,0.1172 -0.22266,0.2637 -0.22265,0.4394 l 0,0.4571 1.85156,0 c 0.28906,0 0.49414,0.057 0.61523,0.1699 0.125,0.1094 0.1875,0.2539 0.1875,0.4336 0,0.1758 -0.0625,0.3203 -0.1875,0.4336 -0.12109,0.1093 -0.32617,0.164 -0.61523,0.164 l -1.85156,0"
         id="path3869"
         style="font-size:12px;font-weight:bold;-inkscape-font-specification:Courier New Bold"
         inkscape:connector-curvature="0" />
      <path
         d="m 577.87305,1013.2938 c -1e-5,0.461 -0.12892,0.9082 -0.38672,1.3418 -0.25391,0.4297 -0.63477,0.7735 -1.14258,1.0313 -0.50391,0.2539 -1.03125,0.3808 -1.58203,0.3808 -0.54688,0 -1.07032,-0.125 -1.57031,-0.375 -0.50001,-0.2539 -0.88086,-0.5976 -1.14258,-1.0312 -0.26172,-0.4336 -0.39258,-0.8867 -0.39258,-1.3594 0,-0.4805 0.13281,-0.9512 0.39844,-1.4121 0.26562,-0.4648 0.64648,-0.8301 1.14258,-1.0957 0.49999,-0.2656 1.02148,-0.3984 1.56445,-0.3984 0.54687,0 1.07226,0.1367 1.57617,0.4101 0.50781,0.2695 0.89062,0.6348 1.14844,1.0957 0.2578,0.457 0.38671,0.9278 0.38672,1.4121 m -1.20118,0.01 c 0,-0.3867 -0.13867,-0.7422 -0.41601,-1.0664 -0.37891,-0.4375 -0.87696,-0.6563 -1.49414,-0.6563 -0.54297,0 -0.9961,0.1739 -1.35938,0.5215 -0.36328,0.3477 -0.54492,0.75 -0.54492,1.207 0,0.375 0.18359,0.7266 0.55078,1.0547 0.36719,0.3242 0.81836,0.4864 1.35352,0.4864 0.53906,0 0.99218,-0.1622 1.35937,-0.4864 0.36719,-0.3281 0.55078,-0.6816 0.55078,-1.0605"
         id="path3871"
         style="font-size:12px;font-weight:bold;-inkscape-font-specification:Courier New Bold"
         inkscape:connector-curvature="0" />
      <path
         d="m 581.69922,1010.5341 0,0.75 c 0.5039,-0.3633 0.90039,-0.6055 1.18945,-0.7266 0.29297,-0.1211 0.5664,-0.1816 0.82031,-0.1816 0.39062,0 0.76953,0.1445 1.13672,0.4335 0.25,0.1954 0.375,0.3946 0.375,0.5977 0,0.1719 -0.0605,0.3184 -0.18164,0.4395 -0.11719,0.1171 -0.25977,0.1757 -0.42773,0.1757 -0.14845,0 -0.3047,-0.074 -0.46875,-0.2226 -0.16407,-0.1485 -0.31055,-0.2227 -0.43946,-0.2227 -0.16797,0 -0.41992,0.1055 -0.75585,0.3164 -0.33204,0.211 -0.74806,0.5274 -1.24805,0.9493 l 0,1.8105 1.71094,0 c 0.28905,0 0.49413,0.057 0.61523,0.1699 0.12499,0.1094 0.18749,0.2539 0.1875,0.4336 -10e-6,0.1758 -0.0625,0.3203 -0.1875,0.4336 -0.1211,0.1094 -0.32618,0.1641 -0.61523,0.1641 l -3.62696,0 c -0.28906,0 -0.49609,-0.055 -0.62109,-0.1641 -0.1211,-0.1133 -0.18164,-0.2598 -0.18164,-0.4394 0,-0.1758 0.0605,-0.3184 0.18164,-0.4278 0.125,-0.1133 0.33203,-0.1699 0.62109,-0.1699 l 0.71485,0 0,-2.918 -0.4336,0 c -0.28906,0 -0.49609,-0.055 -0.62109,-0.164 -0.1211,-0.1133 -0.18164,-0.2598 -0.18164,-0.4395 0,-0.1758 0.0605,-0.3183 0.18164,-0.4277 0.125,-0.1133 0.33203,-0.1699 0.62109,-0.1699 l 1.63477,0"
         id="path3873"
         style="font-size:12px;font-weight:bold;-inkscape-font-specification:Courier New Bold"
         inkscape:connector-curvature="0" />
      <path
         d="m 587.65234,1015.1923 0,1.9687 0.72071,0 c 0.28906,0 0.49413,0.055 0.61523,0.1641 0.125,0.1133 0.1875,0.2597 0.1875,0.4394 0,0.1758 -0.0625,0.3184 -0.1875,0.4278 -0.1211,0.1132 -0.32617,0.1699 -0.61523,0.1699 l -2.12696,0 c -0.28906,0 -0.49609,-0.057 -0.62109,-0.1699 -0.12109,-0.1094 -0.18164,-0.252 -0.18164,-0.4278 0,-0.1797 0.0625,-0.3261 0.1875,-0.4394 0.125,-0.1094 0.33008,-0.1641 0.61523,-0.1641 l 0.20508,0 0,-5.4258 -0.20508,0 c -0.28906,0 -0.49609,-0.055 -0.62109,-0.164 -0.12109,-0.1133 -0.18164,-0.2598 -0.18164,-0.4395 0,-0.1758 0.0606,-0.3183 0.18164,-0.4277 0.125,-0.1133 0.33203,-0.1699 0.62109,-0.1699 l 1.40625,0 0,0.4101 c 0.28125,-0.1914 0.57227,-0.334 0.87305,-0.4277 0.30078,-0.094 0.60937,-0.1406 0.92578,-0.1406 0.82031,0 1.51953,0.2793 2.09766,0.8378 0.57812,0.5547 0.86718,1.1915 0.86719,1.9102 -10e-6,0.793 -0.34181,1.4473 -1.0254,1.9629 -0.57031,0.4297 -1.21289,0.6445 -1.92773,0.6445 -0.3086,0 -0.61328,-0.045 -0.91406,-0.1347 -0.30079,-0.09 -0.59961,-0.2247 -0.89649,-0.4043 m 3.5625,-2.0625 c 0,-0.168 -0.0664,-0.3809 -0.19922,-0.6387 -0.13281,-0.2617 -0.33789,-0.4785 -0.61523,-0.6504 -0.27344,-0.1758 -0.59571,-0.2637 -0.9668,-0.2637 -0.59766,0 -1.07226,0.2246 -1.42382,0.6739 -0.23829,0.3086 -0.35743,0.6054 -0.35743,0.8906 0,0.3203 0.16992,0.6328 0.50977,0.9375 0.34375,0.3008 0.76757,0.4512 1.27148,0.4512 0.50781,0 0.93164,-0.1504 1.27149,-0.4512 0.33984,-0.3008 0.50976,-0.6172 0.50976,-0.9492"
         id="path3875"
         style="font-size:12px;font-weight:bold;-inkscape-font-specification:Courier New Bold"
         inkscape:connector-curvature="0" />
      <path
         d="m 599.45898,1013.2938 c 0,0.461 -0.12891,0.9082 -0.38671,1.3418 -0.25392,0.4297 -0.63478,0.7735 -1.14258,1.0313 -0.50391,0.2539 -1.03126,0.3808 -1.58203,0.3808 -0.54688,0 -1.07032,-0.125 -1.57032,-0.375 -0.5,-0.2539 -0.88086,-0.5976 -1.14257,-1.0312 -0.26172,-0.4336 -0.39258,-0.8867 -0.39258,-1.3594 0,-0.4805 0.13281,-0.9512 0.39843,-1.4121 0.26563,-0.4648 0.64649,-0.8301 1.14258,-1.0957 0.5,-0.2656 1.02148,-0.3984 1.56446,-0.3984 0.54687,0 1.07226,0.1367 1.57617,0.4101 0.5078,0.2695 0.89062,0.6348 1.14844,1.0957 0.2578,0.457 0.38671,0.9278 0.38671,1.4121 m -1.20117,0.01 c 0,-0.3867 -0.13867,-0.7422 -0.41601,-1.0664 -0.37891,-0.4375 -0.87696,-0.6563 -1.49414,-0.6563 -0.54298,0 -0.9961,0.1739 -1.35938,0.5215 -0.36328,0.3477 -0.54492,0.75 -0.54492,1.207 0,0.375 0.18359,0.7266 0.55078,1.0547 0.36719,0.3242 0.81836,0.4864 1.35352,0.4864 0.53905,0 0.99218,-0.1622 1.35937,-0.4864 0.36718,-0.3281 0.55078,-0.6816 0.55078,-1.0605"
         id="path3877"
         style="font-size:12px;font-weight:bold;-inkscape-font-specification:Courier New Bold"
         inkscape:connector-curvature="0" />
      <path
         d="m 604.83203,1011.9403 c -0.19532,-0.1211 -0.40039,-0.2109 -0.61523,-0.2695 -0.21485,-0.062 -0.43946,-0.094 -0.67383,-0.094 -0.46485,0 -0.83399,0.076 -1.10742,0.2285 -0.1211,0.066 -0.18165,0.1387 -0.18164,0.2168 -10e-6,0.09 0.082,0.1778 0.24609,0.2637 0.125,0.062 0.40429,0.1231 0.83789,0.1817 0.79687,0.1093 1.35156,0.2187 1.66406,0.3281 0.41015,0.1445 0.72656,0.3594 0.94922,0.6445 0.22265,0.2852 0.33398,0.5859 0.33399,0.9024 -10e-6,0.4296 -0.18946,0.789 -0.56836,1.0781 -0.54298,0.4179 -1.24805,0.6269 -2.11524,0.6269 -0.34766,0 -0.66992,-0.031 -0.96679,-0.094 -0.29298,-0.059 -0.56251,-0.1465 -0.8086,-0.2637 -0.0586,0.051 -0.12109,0.09 -0.1875,0.1172 -0.0664,0.027 -0.13477,0.041 -0.20508,0.041 -0.1875,0 -0.33789,-0.06 -0.45117,-0.1816 -0.10937,-0.125 -0.16406,-0.3321 -0.16406,-0.6211 l 0,-0.4043 c 0,-0.2891 0.0547,-0.4942 0.16406,-0.6153 0.11328,-0.125 0.25977,-0.1875 0.43945,-0.1875 0.14453,0 0.26563,0.041 0.36329,0.1231 0.0976,0.078 0.17382,0.2148 0.22851,0.4101 0.18359,0.1563 0.4043,0.2754 0.66211,0.3575 0.25781,0.078 0.55469,0.1172 0.89063,0.1172 0.55077,0 0.97851,-0.086 1.2832,-0.2579 0.14453,-0.086 0.21679,-0.1757 0.2168,-0.2695 -10e-6,-0.1562 -0.10352,-0.2851 -0.31055,-0.3867 -0.20704,-0.1016 -0.63477,-0.1875 -1.2832,-0.2578 -0.96485,-0.1016 -1.60938,-0.2969 -1.9336,-0.586 -0.32422,-0.2851 -0.48633,-0.6367 -0.48633,-1.0546 0,-0.4297 0.18164,-0.7871 0.54493,-1.0723 0.49218,-0.3906 1.13671,-0.5859 1.93359,-0.5859 0.27734,0 0.54296,0.027 0.79687,0.082 0.25781,0.051 0.50391,0.1309 0.73829,0.2402 0.0742,-0.055 0.14257,-0.096 0.20507,-0.123 0.0664,-0.027 0.12695,-0.041 0.18164,-0.041 0.16406,0 0.30078,0.062 0.41016,0.1875 0.10937,0.1211 0.16406,0.3261 0.16406,0.6152 l 0,0.293 c 0,0.2617 -0.0312,0.4394 -0.0937,0.5332 -0.125,0.1797 -0.29492,0.2695 -0.50976,0.2695 -0.14454,0 -0.27149,-0.045 -0.38086,-0.1348 -0.10938,-0.09 -0.17969,-0.209 -0.21094,-0.3574"
         id="path3879"
         style="font-size:12px;font-weight:bold;-inkscape-font-specification:Courier New Bold"
         inkscape:connector-curvature="0" />
      <path
         d="m 610.43359,1011.7352 0,2.4082 c 0,0.2578 0.0527,0.4278 0.15821,0.5098 0.16406,0.1289 0.45702,0.1934 0.8789,0.1934 0.61328,0 1.17969,-0.1309 1.69922,-0.3926 0.19921,-0.1016 0.35546,-0.1524 0.46875,-0.1524 0.15625,0 0.29101,0.059 0.4043,0.1758 0.11718,0.1172 0.17577,0.2598 0.17578,0.4278 -10e-6,0.1562 -0.0625,0.291 -0.1875,0.4042 -0.19141,0.1836 -0.57032,0.3536 -1.13672,0.5098 -0.5625,0.1524 -1.03711,0.2285 -1.42383,0.2285 -0.74609,0 -1.30664,-0.1601 -1.68164,-0.4804 -0.37109,-0.3243 -0.55664,-0.7207 -0.55664,-1.1895 l 0,-2.6426 -0.43359,0 c -0.28907,0 -0.4961,-0.055 -0.6211,-0.164 -0.12109,-0.1133 -0.18164,-0.2598 -0.18164,-0.4395 0,-0.1758 0.0606,-0.3183 0.18164,-0.4277 0.125,-0.1133 0.33203,-0.1699 0.6211,-0.1699 l 0.43359,0 0,-1.084 c 0,-0.2891 0.0547,-0.4942 0.16406,-0.6153 0.11328,-0.125 0.25977,-0.1875 0.43946,-0.1875 0.17578,0 0.31835,0.062 0.42773,0.1875 0.11328,0.1211 0.16992,0.3262 0.16992,0.6153 l 0,1.084 2.22071,0 c 0.28905,0 0.49413,0.057 0.61523,0.1699 0.12499,0.1094 0.18749,0.2539 0.1875,0.4336 -10e-6,0.1758 -0.0625,0.3203 -0.1875,0.4336 -0.1211,0.1093 -0.32618,0.164 -0.61523,0.164 l -2.22071,0"
         id="path3881"
         style="font-size:12px;font-weight:bold;-inkscape-font-specification:Courier New Bold"
         inkscape:connector-curvature="0" />
      <path
         d="m 623.9043,1010.5341 0,0.4043 c 0.21874,-0.1875 0.45898,-0.3282 0.7207,-0.4219 0.26562,-0.094 0.55273,-0.1406 0.86133,-0.1406 0.71093,0 1.27343,0.2207 1.6875,0.6621 0.32812,0.3515 0.49218,0.8125 0.49219,1.3828 l 0,2.2324 c 0.2539,0 0.4414,0.057 0.5625,0.1699 0.12108,0.1094 0.18163,0.2539 0.18164,0.4336 -10e-6,0.1758 -0.0625,0.3203 -0.1875,0.4336 -0.1211,0.1094 -0.32618,0.1641 -0.61524,0.1641 l -1.08398,0 c -0.28907,0 -0.4961,-0.055 -0.6211,-0.1641 -0.12109,-0.1133 -0.18164,-0.2598 -0.18164,-0.4394 0,-0.1758 0.0606,-0.3184 0.18164,-0.4278 0.12109,-0.1133 0.30859,-0.1699 0.5625,-0.1699 l 0,-2.2676 c 0,-0.2617 -0.0703,-0.4531 -0.21093,-0.5742 -0.1836,-0.1562 -0.45899,-0.2344 -0.82618,-0.2344 -0.27734,0 -0.52148,0.055 -0.73242,0.1641 -0.20703,0.1055 -0.4707,0.332 -0.79101,0.6797 l 0,2.2324 c 0.30859,0 0.50781,0.029 0.59765,0.088 0.19141,0.1172 0.28711,0.2891 0.28711,0.5156 0,0.1758 -0.0625,0.3203 -0.1875,0.4336 -0.12109,0.1094 -0.32617,0.1641 -0.61523,0.1641 l -1.36524,0 c -0.28906,0 -0.49609,-0.055 -0.62109,-0.1641 -0.12109,-0.1133 -0.18164,-0.2598 -0.18164,-0.4394 0,-0.2188 0.0937,-0.3887 0.28125,-0.5098 0.0937,-0.059 0.29492,-0.088 0.60351,-0.088 l 0,-2.918 c -0.2539,0 -0.4414,-0.057 -0.5625,-0.1699 -0.12109,-0.1133 -0.18164,-0.2578 -0.18164,-0.4336 0,-0.1758 0.0606,-0.3183 0.18164,-0.4277 0.125,-0.1133 0.33204,-0.1699 0.6211,-0.1699 l 1.14258,0"
         id="path3883"
         style="font-size:12px;font-weight:bold;-inkscape-font-specification:Courier New Bold"
         inkscape:connector-curvature="0" />
      <path
         d="m 635.43555,1013.2938 c -1e-5,0.461 -0.12892,0.9082 -0.38672,1.3418 -0.25391,0.4297 -0.63477,0.7735 -1.14258,1.0313 -0.50391,0.2539 -1.03125,0.3808 -1.58203,0.3808 -0.54688,0 -1.07032,-0.125 -1.57031,-0.375 -0.50001,-0.2539 -0.88086,-0.5976 -1.14258,-1.0312 -0.26172,-0.4336 -0.39258,-0.8867 -0.39258,-1.3594 0,-0.4805 0.13281,-0.9512 0.39844,-1.4121 0.26562,-0.4648 0.64648,-0.8301 1.14258,-1.0957 0.49999,-0.2656 1.02148,-0.3984 1.56445,-0.3984 0.54687,0 1.07226,0.1367 1.57617,0.4101 0.50781,0.2695 0.89062,0.6348 1.14844,1.0957 0.2578,0.457 0.38671,0.9278 0.38672,1.4121 m -1.20118,0.01 c 0,-0.3867 -0.13867,-0.7422 -0.41601,-1.0664 -0.37891,-0.4375 -0.87696,-0.6563 -1.49414,-0.6563 -0.54297,0 -0.9961,0.1739 -1.35938,0.5215 -0.36328,0.3477 -0.54492,0.75 -0.54492,1.207 0,0.375 0.18359,0.7266 0.55078,1.0547 0.36719,0.3242 0.81836,0.4864 1.35352,0.4864 0.53906,0 0.99218,-0.1622 1.35937,-0.4864 0.36719,-0.3281 0.55078,-0.6816 0.55078,-1.0605"
         id="path3885"
         style="font-size:12px;font-weight:bold;-inkscape-font-specification:Courier New Bold"
         inkscape:connector-curvature="0" />
      <path
         d="m 639.26172,1010.5341 0,0.75 c 0.5039,-0.3633 0.90039,-0.6055 1.18945,-0.7266 0.29297,-0.1211 0.5664,-0.1816 0.82031,-0.1816 0.39062,0 0.76953,0.1445 1.13672,0.4335 0.25,0.1954 0.375,0.3946 0.375,0.5977 0,0.1719 -0.0605,0.3184 -0.18164,0.4395 -0.11719,0.1171 -0.25977,0.1757 -0.42773,0.1757 -0.14845,0 -0.3047,-0.074 -0.46875,-0.2226 -0.16407,-0.1485 -0.31055,-0.2227 -0.43946,-0.2227 -0.16797,0 -0.41992,0.1055 -0.75585,0.3164 -0.33204,0.211 -0.74806,0.5274 -1.24805,0.9493 l 0,1.8105 1.71094,0 c 0.28905,0 0.49413,0.057 0.61523,0.1699 0.12499,0.1094 0.18749,0.2539 0.1875,0.4336 -10e-6,0.1758 -0.0625,0.3203 -0.1875,0.4336 -0.1211,0.1094 -0.32618,0.1641 -0.61523,0.1641 l -3.62696,0 c -0.28906,0 -0.49609,-0.055 -0.62109,-0.1641 -0.1211,-0.1133 -0.18164,-0.2598 -0.18164,-0.4394 0,-0.1758 0.0605,-0.3184 0.18164,-0.4278 0.125,-0.1133 0.33203,-0.1699 0.62109,-0.1699 l 0.71485,0 0,-2.918 -0.4336,0 c -0.28906,0 -0.49609,-0.055 -0.62109,-0.164 -0.1211,-0.1133 -0.18164,-0.2598 -0.18164,-0.4395 0,-0.1758 0.0605,-0.3183 0.18164,-0.4277 0.125,-0.1133 0.33203,-0.1699 0.62109,-0.1699 l 1.63477,0"
         id="path3887"
         style="font-size:12px;font-weight:bold;-inkscape-font-specification:Courier New Bold"
         inkscape:connector-curvature="0" />
      <path
         d="m 648.02734,1010.8915 0,-0.3574 1.40625,0 c 0.28906,0 0.49414,0.057 0.61524,0.1699 0.12499,0.1094 0.18749,0.2539 0.1875,0.4336 -10e-6,0.1758 -0.0625,0.3203 -0.1875,0.4336 -0.1211,0.1093 -0.32618,0.164 -0.61524,0.164 l -0.20507,0 0,4.3711 c -10e-6,0.4219 -0.0898,0.7891 -0.26954,1.1016 -0.17578,0.3164 -0.44727,0.5879 -0.81445,0.8144 -0.36719,0.2266 -0.78125,0.3399 -1.24219,0.3399 l -1.35937,0 c -0.28907,0 -0.4961,-0.057 -0.6211,-0.1699 -0.12109,-0.1094 -0.18164,-0.252 -0.18164,-0.4278 0,-0.1797 0.0606,-0.3261 0.18164,-0.4394 0.125,-0.1094 0.33203,-0.1641 0.6211,-0.1641 l 1.32422,0 c 0.36718,0 0.65234,-0.1 0.85547,-0.2988 0.20312,-0.1992 0.30468,-0.4512 0.30468,-0.7559 l 0,-0.5859 c -0.26563,0.1719 -0.53711,0.3008 -0.81445,0.3867 -0.27344,0.086 -0.55469,0.1289 -0.84375,0.1289 -0.81641,0 -1.5,-0.2715 -2.05078,-0.8144 -0.55078,-0.5469 -0.82617,-1.2207 -0.82617,-2.0215 0,-0.8047 0.27539,-1.4785 0.82617,-2.0215 0.55078,-0.5469 1.23437,-0.8203 2.05078,-0.8203 0.30468,0 0.59375,0.045 0.86719,0.1347 0.27734,0.086 0.54101,0.2188 0.79101,0.3985 m -0.006,2.3027 c 0,-0.4414 -0.16406,-0.8242 -0.49218,-1.1484 -0.32423,-0.3242 -0.71485,-0.4863 -1.17188,-0.4864 -0.45703,10e-5 -0.84961,0.1622 -1.17773,0.4864 -0.32422,0.3242 -0.48633,0.707 -0.48633,1.1484 0,0.4453 0.16211,0.8301 0.48633,1.1543 0.32812,0.3203 0.7207,0.4805 1.17773,0.4805 0.45703,0 0.84765,-0.1602 1.17188,-0.4805 0.32812,-0.3242 0.49218,-0.709 0.49218,-1.1543"
         id="path3889"
         style="font-size:12px;font-weight:bold;-inkscape-font-specification:Courier New Bold"
         inkscape:connector-curvature="0" />
      <path
         d="m 656.91602,1013.8036 -4.92774,0 c 0.125,0.3125 0.3457,0.5644 0.66211,0.7558 0.32031,0.1915 0.75195,0.2872 1.29492,0.2872 0.44531,0 1.03711,-0.096 1.77539,-0.2872 0.30468,-0.078 0.51562,-0.1171 0.63282,-0.1171 0.16015,0 0.29491,0.057 0.40429,0.1699 0.10937,0.1133 0.16406,0.2558 0.16406,0.4277 0,0.1563 -0.0586,0.2891 -0.17578,0.3985 -0.15625,0.1445 -0.53711,0.2832 -1.14257,0.416 -0.60548,0.1289 -1.18751,0.1933 -1.7461,0.1933 -0.96094,0 -1.73047,-0.2715 -2.30859,-0.8144 -0.57422,-0.543 -0.86133,-1.211 -0.86133,-2.0039 0,-0.8438 0.31055,-1.5293 0.93164,-2.0567 0.625,-0.5312 1.34375,-0.7968 2.15625,-0.7968 0.48828,0 0.93554,0.086 1.3418,0.2578 0.41015,0.1718 0.71484,0.3574 0.91406,0.5566 0.28124,0.2891 0.51367,0.6465 0.69727,1.0723 0.12499,0.2969 0.18749,0.6406 0.1875,1.0312 l 0,0.5098 m -1.33008,-1.2012 c -0.1836,-0.3437 -0.42384,-0.5996 -0.72071,-0.7676 -0.29687,-0.1718 -0.65039,-0.2578 -1.06054,-0.2578 -0.40626,0 -0.75782,0.086 -1.05469,0.2578 -0.29688,0.168 -0.53906,0.4239 -0.72656,0.7676 l 3.5625,0"
         id="path3891"
         style="font-size:12px;font-weight:bold;-inkscape-font-specification:Courier New Bold"
         inkscape:connector-curvature="0" />
    </g>
  </g>
</svg>
